<svg width="60" height="60" viewBox="0 0 60 60" fill="none" xmlns="http://www.w3.org/2000/svg">
<g id="ico">
<circle id="Ellipse 51" cx="30" cy="30" r="30" fill="#F2F6FF"/>
<g id="credit_score">
<mask id="mask0_311_71223" style="mask-type:alpha" maskUnits="userSpaceOnUse" x="13" y="13" width="35" height="36">
<rect id="Bounding box" x="13.7148" y="13.7146" width="34.2857" height="34.2857" fill="#D9D9D9"/>
</mask>
<g mask="url(#mask0_311_71223)">
<path id="distance" d="M30.8583 45.1427C28.3345 45.1427 26.275 44.7638 24.6798 44.0059C23.0845 43.2478 22.2869 42.2776 22.2869 41.0952C22.2869 40.3888 22.5964 39.7419 23.2155 39.1545C23.8345 38.5674 24.6877 38.0952 25.7751 37.7381L26.4773 40.0238C26.0884 40.1428 25.7313 40.3036 25.4058 40.5059C25.0806 40.7083 24.8346 40.9047 24.668 41.0952C25.0408 41.5395 25.8384 41.9283 27.0608 42.2617C28.283 42.595 29.5488 42.7617 30.8583 42.7617C32.1678 42.7617 33.4396 42.595 34.6737 42.2617C35.908 41.9283 36.7115 41.5395 37.0844 41.0952C36.9177 40.9205 36.6757 40.7319 36.3583 40.5295C36.0409 40.3271 35.6799 40.1586 35.2751 40.0238L35.9537 37.7381C37.0408 38.0952 37.892 38.5674 38.5073 39.1545C39.1223 39.7419 39.4298 40.3888 39.4298 41.0952C39.4298 42.2776 38.6321 43.2478 37.0369 44.0059C35.4417 44.7638 33.3821 45.1427 30.8583 45.1427ZM30.8583 41.1902C30.5805 41.1902 30.3344 41.1089 30.1201 40.9463C29.9058 40.7837 29.7511 40.5714 29.6558 40.3095C29.0925 38.5871 28.3862 37.1545 27.5369 36.0116C26.6876 34.8688 25.8623 33.7736 25.0608 32.7259C24.267 31.6783 23.5864 30.5911 23.019 29.4641C22.4517 28.3372 22.168 26.9364 22.168 25.2616C22.168 22.8331 23.0092 20.7776 24.6915 19.0952C26.3742 17.4126 28.4298 16.5713 30.8583 16.5713C33.2869 16.5713 35.3425 17.4126 37.0251 19.0952C38.7075 20.7776 39.5487 22.8331 39.5487 25.2616C39.5487 26.9364 39.267 28.3372 38.7037 29.4641C38.1401 30.5911 37.4575 31.6783 36.6558 32.7259C35.8623 33.7736 35.0389 34.8688 34.1858 36.0116C33.3325 37.1545 32.6242 38.5871 32.0608 40.3095C31.9656 40.5714 31.8108 40.7837 31.5965 40.9463C31.3823 41.1089 31.1362 41.1902 30.8583 41.1902ZM30.8583 27.7024C31.5329 27.7024 32.1082 27.4643 32.5844 26.9881C33.0606 26.5119 33.2987 25.9364 33.2987 25.2616C33.2987 24.5871 33.0606 24.0118 32.5844 23.5356C32.1082 23.0594 31.5329 22.8213 30.8583 22.8213C30.1838 22.8213 29.6084 23.0594 29.1323 23.5356C28.6561 24.0118 28.418 24.5871 28.418 25.2616C28.418 25.9364 28.6561 26.5119 29.1323 26.9881C29.6084 27.4643 30.1838 27.7024 30.8583 27.7024Z" fill="#5064EC"/>
</g>
</g>
</g>
</svg>
