<svg width="40" height="21" viewBox="0 0 40 21" fill="none" xmlns="http://www.w3.org/2000/svg">
<rect y="0.5" width="40" height="20" fill="#60B73D"/>
<path d="M14.4531 7.82031C14.4531 9.54297 15.332 11.3828 17.125 12.1328L16.3164 13.3047C15.0566 12.7715 14.1895 11.7109 13.7148 10.4102C13.2285 11.8223 12.3438 12.9941 11.0898 13.5742L10.2344 12.3906C12.0039 11.6055 12.918 9.625 12.918 7.82031V7.16406H10.6562V5.94531H16.6797V7.16406H14.4531V7.82031ZM19.2461 4.91406V15.5781H17.7344V4.91406H19.2461ZM24.6836 6.74219C24.6836 8.125 25.4219 9.49609 27.1211 10.0586L26.3125 11.2305C25.1816 10.8145 24.4023 10.0293 23.957 9.03906C23.4941 10.1523 22.6621 11.0312 21.4258 11.4766L20.6172 10.3047C22.3984 9.71875 23.1719 8.25391 23.1719 6.73047V5.57031H24.6836V6.74219ZM29.6758 4.92578V12.8008H28.1875V8.39453H26.1836V7.1875H28.1875V4.92578H29.6758ZM29.8984 14.1953V15.3906H22.5742V11.9688H24.0859V14.1953H29.8984Z" fill="white"/>
</svg>
