<svg width="60" height="60" viewBox="0 0 60 60" fill="none" xmlns="http://www.w3.org/2000/svg">
<g id="ico">
<circle id="Ellipse 51" cx="30" cy="30" r="30" fill="#F2F6FF"/>
<g id="credit_score">
<mask id="mask0_311_71206" style="mask-type:alpha" maskUnits="userSpaceOnUse" x="12" y="12" width="35" height="35">
<rect id="Bounding box" x="12.666" y="12.666" width="34.2857" height="34.2857" fill="#D9D9D9"/>
</mask>
<g mask="url(#mask0_311_71206)">
<path id="google_home_devices" d="M24.1413 42.6664V39.6425H17.7127C17.0699 39.6425 16.5124 39.4025 16.0402 38.9225C15.5681 38.4423 15.332 37.8807 15.332 37.2379V19.3332C15.332 18.6904 15.5681 18.1327 16.0402 17.6604C16.5124 17.1882 17.0699 16.9521 17.7127 16.9521H41.5224C42.1653 16.9521 42.7228 17.1882 43.1949 17.6604C43.6673 18.1327 43.9035 18.6904 43.9035 19.3332V23.2618H41.5224V19.3332H17.7127V37.2618H29.332V42.6664H24.1413ZM34.6892 36.4311C34.6892 35.5166 35.0116 34.7358 35.6563 34.0889C36.3013 33.4423 37.0811 33.1189 37.9956 33.1189C38.9104 33.1189 39.6911 33.4413 40.3378 34.0861C40.9847 34.7311 41.3081 35.5108 41.3081 36.4254C41.3081 37.3401 40.9856 38.1208 40.3406 38.7675C39.6958 39.4144 38.9161 39.7379 38.0013 39.7379C37.0868 39.7379 36.3061 39.4154 35.6592 38.7704C35.0125 38.1256 34.6892 37.3458 34.6892 36.4311ZM42.8499 24.4521C43.2428 24.4521 43.58 24.593 43.8617 24.8746C44.1433 25.1566 44.2842 25.495 44.2842 25.89V41.2286C44.2842 41.6236 44.1433 41.962 43.8617 42.2439C43.58 42.5256 43.2428 42.6664 42.8499 42.6664H33.1474C32.7545 42.6664 32.4173 42.5256 32.1356 42.2439C31.8537 41.962 31.7128 41.6236 31.7128 41.2286V25.89C31.7128 25.495 31.8537 25.1566 32.1356 24.8746C32.4173 24.593 32.7545 24.4521 33.1474 24.4521H42.8499ZM37.9985 25.8568C37.4113 25.8568 36.9074 26.0671 36.4867 26.4879C36.066 26.9086 35.8556 27.4125 35.8556 27.9996C35.8556 28.587 36.066 29.0911 36.4867 29.5118C36.9074 29.9323 37.4113 30.1425 37.9985 30.1425C38.5858 30.1425 39.0899 29.9323 39.5106 29.5118C39.9311 29.0911 40.1413 28.587 40.1413 27.9996C40.1413 27.4125 39.9311 26.9086 39.5106 26.4879C39.0899 26.0671 38.5858 25.8568 37.9985 25.8568ZM37.9985 41.2854C39.4032 41.2854 40.5639 40.827 41.4806 39.9104C42.3973 38.9937 42.8556 37.833 42.8556 36.4282C42.8556 35.0235 42.3973 33.8627 41.4806 32.9461C40.5639 32.0294 39.4032 31.5711 37.9985 31.5711C36.5937 31.5711 35.433 32.0294 34.5163 32.9461C33.5997 33.8627 33.1413 35.0235 33.1413 36.4282C33.1413 37.833 33.5997 38.9937 34.5163 39.9104C35.433 40.827 36.5937 41.2854 37.9985 41.2854Z" fill="#5064EC"/>
</g>
</g>
</g>
</svg>
