<svg width="60" height="60" viewBox="0 0 60 60" fill="none" xmlns="http://www.w3.org/2000/svg">
<g id="ico">
<circle id="Ellipse 51" cx="30" cy="30" r="30" fill="#F2F6FF"/>
<g id="credit_score">
<mask id="mask0_311_71197" style="mask-type:alpha" maskUnits="userSpaceOnUse" x="12" y="12" width="36" height="36">
<rect id="Bounding box" x="12.8574" y="12.8572" width="34.2857" height="34.2857" fill="#D9D9D9"/>
</mask>
<g mask="url(#mask0_311_71197)">
<path id="apartment" d="M17.1445 42.8578V22.9768H22.9777V17.1436H37.0256V28.8103H42.8588V42.8578H31.7399V37.0246H28.2635V42.8578H17.1445ZM19.5256 40.4768H22.9777V37.0246H19.5256V40.4768ZM19.5256 34.6436H22.9777V31.1911H19.5256V34.6436ZM19.5256 28.8103H22.9777V25.3578H19.5256V28.8103ZM25.3588 34.6436H28.8113V31.1911H25.3588V34.6436ZM25.3588 28.8103H28.8113V25.3578H25.3588V28.8103ZM25.3588 22.9768H28.8113V19.5246H25.3588V22.9768ZM31.192 34.6436H34.6445V31.1911H31.192V34.6436ZM31.192 28.8103H34.6445V25.3578H31.192V28.8103ZM31.192 22.9768H34.6445V19.5246H31.192V22.9768ZM37.0256 40.4768H40.4777V37.0246H37.0256V40.4768ZM37.0256 34.6436H40.4777V31.1911H37.0256V34.6436Z" fill="#5064EC"/>
</g>
</g>
</g>
</svg>
