<svg width="70" height="70" viewBox="0 0 70 70" fill="none" xmlns="http://www.w3.org/2000/svg">
<g id="ico">
<circle id="Ellipse 51" cx="35" cy="35" r="35" fill="#F2F6FF"/>
<g id="credit_score">
<mask id="mask0_311_71103" style="mask-type:alpha" maskUnits="userSpaceOnUse" x="15" y="15" width="40" height="40">
<rect id="Bounding box" x="15" y="15" width="40" height="40" fill="#D9D9D9"/>
</mask>
<g mask="url(#mask0_311_71103)">
<path id="groups" d="M15 46.0195V43.6723C15 42.56 15.588 41.6546 16.7639 40.9561C17.9398 40.2577 19.485 39.9084 21.3993 39.9084C21.745 39.9084 22.0773 39.9154 22.3964 39.9293C22.7155 39.9432 23.0278 39.9747 23.3333 40.0238C23.0556 40.5395 22.8472 41.0688 22.7083 41.6117C22.5694 42.1546 22.5 42.7211 22.5 43.3112V46.0195H15ZM25 46.0195V43.3112C25 42.4223 25.2431 41.6098 25.7292 40.8737C26.2153 40.1376 26.9028 39.4918 27.7917 38.9362C28.6806 38.3806 29.7431 37.964 30.9792 37.6862C32.2153 37.4084 33.5556 37.2695 35 37.2695C36.4722 37.2695 37.8264 37.4084 39.0625 37.6862C40.2986 37.964 41.3611 38.3806 42.25 38.9362C43.1389 39.4918 43.8194 40.1376 44.2917 40.8737C44.7639 41.6098 45 42.4223 45 43.3112V46.0195H25ZM47.5 46.0195V43.3112C47.5 42.7027 47.4375 42.1292 47.3125 41.5909C47.1875 41.0526 46.9907 40.5309 46.7222 40.0259C47.0278 39.9754 47.3373 39.9432 47.6506 39.9293C47.964 39.9154 48.2841 39.9084 48.6111 39.9084C50.5278 39.9084 52.0718 40.2512 53.243 40.9367C54.4143 41.6222 55 42.5341 55 43.6723V46.0195H47.5ZM21.3769 38.5196C20.5423 38.5196 19.8264 38.2204 19.2292 37.622C18.6319 37.0236 18.3333 36.3043 18.3333 35.464C18.3333 34.6122 18.6325 33.8899 19.2309 33.2974C19.8293 32.7048 20.5486 32.4084 21.3889 32.4084C22.2407 32.4084 22.963 32.7048 23.5555 33.2974C24.1481 33.8899 24.4444 34.6162 24.4444 35.476C24.4444 36.3106 24.1481 37.0265 23.5555 37.6237C22.963 38.221 22.2367 38.5196 21.3769 38.5196ZM48.5991 38.5196C47.7645 38.5196 47.0486 38.2204 46.4514 37.622C45.8542 37.0236 45.5556 36.3043 45.5556 35.464C45.5556 34.6122 45.8548 33.8899 46.4531 33.2974C47.0515 32.7048 47.7708 32.4084 48.6111 32.4084C49.463 32.4084 50.1852 32.7048 50.7778 33.2974C51.3704 33.8899 51.6667 34.6162 51.6667 35.476C51.6667 36.3106 51.3704 37.0265 50.7778 37.6237C50.1852 38.221 49.4589 38.5196 48.5991 38.5196ZM35 36.0195C33.6111 36.0195 32.4306 35.5334 31.4583 34.5612C30.4861 33.589 30 32.4084 30 31.0195C30 29.6029 30.4861 28.4154 31.4583 27.457C32.4306 26.4987 33.6111 26.0195 35 26.0195C36.4167 26.0195 37.6042 26.4987 38.5625 27.457C39.5208 28.4154 40 29.6029 40 31.0195C40 32.4084 39.5208 33.589 38.5625 34.5612C37.6042 35.5334 36.4167 36.0195 35 36.0195Z" fill="#394FE9"/>
</g>
</g>
</g>
</svg>
