<svg width="50" height="50" viewBox="0 0 50 50" fill="none" xmlns="http://www.w3.org/2000/svg">
<g id="ico">
<circle id="Ellipse 51" cx="25" cy="25" r="25" fill="#F2F6FF"/>
<g id="credit_score">
<mask id="mask0_311_70286" style="mask-type:alpha" maskUnits="userSpaceOnUse" x="10" y="10" width="30" height="30">
<rect id="Bounding box" x="10.7129" y="10.7146" width="28.5714" height="28.5714" fill="#D9D9D9"/>
</mask>
<g mask="url(#mask0_311_70286)">
<path id="directions_subway" d="M18.0343 35.7147V34.5869L19.7754 33.4591C18.634 33.4591 17.6716 33.0784 16.8881 32.3171C16.1046 31.5559 15.7129 30.6207 15.7129 29.5117V18.7974C15.7129 17.2373 16.4577 16.0953 17.9473 15.3717C19.4368 14.648 21.7873 14.2861 24.9986 14.2861C28.326 14.2861 30.7055 14.6339 32.137 15.3294C33.5685 16.0249 34.2843 17.1809 34.2843 18.7974V29.5117C34.2843 30.6207 33.8926 31.5559 33.1091 32.3171C32.3256 33.0784 31.3632 33.4591 30.2218 33.4591L31.9629 34.5869V35.7147H18.0343ZM17.6474 23.5906H24.1087V19.5493H17.6474V23.5906ZM26.0432 23.5906H32.3498V19.5493H26.0432V23.5906ZM20.8405 30.1696C21.2976 30.1696 21.6857 30.0141 22.0049 29.7033C22.3241 29.3924 22.4837 29.0149 22.4837 28.5708C22.4837 28.1266 22.3237 27.7495 22.0038 27.4393C21.6838 27.1292 21.2953 26.9741 20.8382 26.9741C20.3812 26.9741 19.993 27.1295 19.6738 27.4404C19.3546 27.7513 19.195 28.1288 19.195 28.573C19.195 29.0171 19.355 29.3942 19.675 29.7044C19.9949 30.0145 20.3834 30.1696 20.8405 30.1696ZM29.159 30.1696C29.6161 30.1696 30.0042 30.0141 30.3234 29.7033C30.6426 29.3924 30.8022 29.0149 30.8022 28.5708C30.8022 28.1266 30.6422 27.7495 30.3223 27.4393C30.0023 27.1292 29.6138 26.9741 29.1567 26.9741C28.6996 26.9741 28.3115 27.1295 27.9923 27.4404C27.6731 27.7513 27.5135 28.1288 27.5135 28.573C27.5135 29.0171 27.6735 29.3942 27.9934 29.7044C28.3134 30.0145 28.7019 30.1696 29.159 30.1696Z" fill="#394FE9"/>
</g>
</g>
</g>
</svg>
