<svg width="60" height="60" viewBox="0 0 60 60" fill="none" xmlns="http://www.w3.org/2000/svg">
<g id="ico">
<circle id="Ellipse 51" cx="30" cy="30" r="30" fill="#F2F6FF"/>
<g id="credit_score">
<mask id="mask0_311_71214" style="mask-type:alpha" maskUnits="userSpaceOnUse" x="12" y="12" width="36" height="36">
<rect id="Bounding box" x="12.8574" y="12.8574" width="34.2857" height="34.2857" fill="#D9D9D9"/>
</mask>
<g mask="url(#mask0_311_71214)">
<path id="contract" d="M21.0731 44.2853C19.9819 44.2853 19.0543 43.9034 18.2902 43.1396C17.5264 42.3755 17.1445 41.4479 17.1445 40.3567V35.7139H21.4302V15.7139H42.8588V40.3567C42.8588 41.4479 42.4769 42.3755 41.7131 43.1396C40.9491 43.9034 40.0214 44.2853 38.9302 44.2853H21.0731ZM38.9281 41.9042C39.366 41.9042 39.7337 41.756 40.0313 41.4596C40.3289 41.1629 40.4777 40.7953 40.4777 40.3567V18.0949H23.8113V35.7139H37.3827V40.3567C37.3827 40.7953 37.5308 41.1629 37.827 41.4596C38.1232 41.756 38.4902 41.9042 38.9281 41.9042ZM25.716 24.7614V22.3807H38.5731V24.7614H25.716ZM25.716 29.0471V26.6664H38.5731V29.0471H25.716Z" fill="#5064EC"/>
</g>
</g>
</g>
</svg>
