<svg width="50" height="50" viewBox="0 0 50 50" fill="none" xmlns="http://www.w3.org/2000/svg">
<g id="ico">
<circle id="Ellipse 51" cx="25" cy="25" r="25" fill="#F2F6FF"/>
<g id="credit_score">
<mask id="mask0_311_70278" style="mask-type:alpha" maskUnits="userSpaceOnUse" x="10" y="10" width="30" height="30">
<rect id="Bounding box" x="10.7129" y="10.7146" width="28.5714" height="28.5714" fill="#D9D9D9"/>
</mask>
<g mask="url(#mask0_311_70278)">
<path id="call" d="M34.4042 35.7147C32.0431 35.7147 29.6621 35.1641 27.2613 34.0629C24.8606 32.9617 22.6483 31.3992 20.6244 29.3754C18.6006 27.3516 17.0381 25.1393 15.9369 22.7385C14.8358 20.3377 14.2852 17.9568 14.2852 15.5957C14.2852 15.2252 14.4109 14.9144 14.6622 14.6632C14.9134 14.4118 15.2242 14.2861 15.5947 14.2861H19.9795C20.2573 14.2861 20.4987 14.3837 20.7039 14.5787C20.9089 14.7739 21.0444 15.0137 21.1105 15.298L21.9042 19.187C21.9439 19.4779 21.9372 19.7358 21.8843 19.9608C21.8315 20.1856 21.7257 20.3774 21.567 20.5361L18.6206 23.5123C19.0968 24.3391 19.6176 25.1179 20.1831 25.8486C20.7485 26.5794 21.3719 27.2755 22.053 27.937C22.7475 28.6446 23.4783 29.2944 24.2456 29.8864C25.0126 30.4783 25.8195 31.0057 26.6661 31.4686L29.4837 28.5918C29.6753 28.3866 29.9051 28.2428 30.173 28.1602C30.4408 28.0775 30.7071 28.056 30.9718 28.0957L34.7018 28.8894C34.9929 28.9688 35.2343 29.1225 35.4259 29.3507C35.6178 29.5789 35.7137 29.8351 35.7137 30.1195V34.4052C35.7137 34.7756 35.588 35.0864 35.3366 35.3376C35.0855 35.589 34.7746 35.7147 34.4042 35.7147Z" fill="#394FE9"/>
</g>
</g>
</g>
</svg>
