<svg width="50" height="50" viewBox="0 0 50 50" fill="none" xmlns="http://www.w3.org/2000/svg">
<g id="ico">
<circle id="Ellipse 51" cx="25" cy="25" r="25" fill="#F2F6FF"/>
<g id="credit_score">
<mask id="mask0_311_70270" style="mask-type:alpha" maskUnits="userSpaceOnUse" x="10" y="10" width="30" height="30">
<rect id="Bounding box" x="10.7129" y="10.7146" width="28.5714" height="28.5714" fill="#D9D9D9"/>
</mask>
<g mask="url(#mask0_311_70270)">
<path id="distance" d="M24.9978 36.9047C22.8946 36.9047 21.1784 36.589 19.849 35.9574C18.5196 35.3257 17.855 34.5171 17.855 33.5318C17.855 32.9431 18.1129 32.404 18.6288 31.9146C19.1446 31.4253 19.8557 31.0318 20.7618 30.7342L21.3469 32.639C21.0229 32.7382 20.7253 32.8721 20.4541 33.0408C20.183 33.2094 19.9781 33.3731 19.8392 33.5318C20.1499 33.9021 20.8146 34.2261 21.8332 34.5038C22.8517 34.7816 23.9066 34.9205 24.9978 34.9205C26.0891 34.9205 27.1489 34.7816 28.1773 34.5038C29.2059 34.2261 29.8755 33.9021 30.1862 33.5318C30.0473 33.3862 29.8456 33.229 29.5812 33.0604C29.3167 32.8917 29.0158 32.7513 28.6785 32.639L29.244 30.7342C30.1499 31.0318 30.8592 31.4253 31.3719 31.9146C31.8844 32.404 32.1407 32.9431 32.1407 33.5318C32.1407 34.5171 31.476 35.3257 30.1466 35.9574C28.8173 36.589 27.101 36.9047 24.9978 36.9047ZM24.9978 33.611C24.7663 33.611 24.5612 33.5432 24.3826 33.4077C24.2041 33.2722 24.0751 33.0953 23.9957 32.8771C23.5263 31.4417 22.9377 30.2479 22.23 29.2955C21.5222 28.3431 20.8344 27.4304 20.1666 26.5574C19.5051 25.6844 18.9379 24.7784 18.4651 23.8393C17.9923 22.9002 17.7559 21.7328 17.7559 20.3372C17.7559 18.3134 18.4569 16.6005 19.8588 15.1985C21.261 13.7963 22.974 13.0952 24.9978 13.0952C27.0216 13.0952 28.7346 13.7963 30.1368 15.1985C31.5388 16.6005 32.2398 18.3134 32.2398 20.3372C32.2398 21.7328 32.0051 22.9002 31.5356 23.8393C31.066 24.7784 30.4971 25.6844 29.8291 26.5574C29.1678 27.4304 28.4817 28.3431 27.7707 29.2955C27.0596 30.2479 26.4694 31.4417 25.9999 32.8771C25.9205 33.0953 25.7916 33.2722 25.613 33.4077C25.4344 33.5432 25.2294 33.611 24.9978 33.611ZM24.9978 22.3711C25.5599 22.3711 26.0394 22.1727 26.4362 21.7759C26.833 21.379 27.0315 20.8995 27.0315 20.3372C27.0315 19.7751 26.833 19.2956 26.4362 18.8988C26.0394 18.502 25.5599 18.3035 24.9978 18.3035C24.4357 18.3035 23.9563 18.502 23.5594 18.8988C23.1626 19.2956 22.9642 19.7751 22.9642 20.3372C22.9642 20.8995 23.1626 21.379 23.5594 21.7759C23.9563 22.1727 24.4357 22.3711 24.9978 22.3711Z" fill="#394FE9"/>
</g>
</g>
</g>
</svg>
