<svg width="70" height="70" viewBox="0 0 70 70" fill="none" xmlns="http://www.w3.org/2000/svg">
<g id="ico">
<circle id="Ellipse 51" cx="35" cy="35" r="35" fill="#F2F6FF"/>
<g id="credit_score">
<mask id="mask0_311_71112" style="mask-type:alpha" maskUnits="userSpaceOnUse" x="15" y="15" width="40" height="40">
<rect id="Bounding box" x="15" y="15" width="40" height="40" fill="#D9D9D9"/>
</mask>
<g mask="url(#mask0_311_71112)">
<path id="approval_delegation" d="M26.5714 46.7591V33.7075H29.8571C30.0191 33.7075 30.1857 33.7222 30.3571 33.7516C30.5285 33.781 30.6952 33.821 30.8571 33.8714L41.8142 37.4905C42.4428 37.7007 42.969 38.037 43.3928 38.4994C43.8166 38.9618 44.0285 39.4788 44.0285 40.0505C44.0285 40.3615 43.9119 40.6137 43.6786 40.8071C43.4452 41.0004 43.1619 41.0971 42.8286 41.0971H39.2429C38.7572 41.0971 38.2881 41.0656 37.8357 41.0025C37.3833 40.9395 36.9286 40.8407 36.4714 40.7062L33.4714 39.7856L33 40.9836L36.2428 41.9798C36.7571 42.1396 37.3 42.2425 37.8714 42.2888C38.4429 42.335 39.0096 42.3581 39.5715 42.3581H49.0571C50.1619 42.3581 51.0952 42.7196 51.8571 43.4426C52.619 44.1656 53 45.04 53 46.0656L39.5 50L26.5714 46.7591ZM17 49.1929V33.7075H23.6857V49.1929H17ZM37.8143 32.2951L30.7 26.0151L32.7428 24.2245L37.8143 28.7264L47.7429 20L49.7429 21.7402L37.8143 32.2951Z" fill="#394FE9"/>
</g>
</g>
</g>
</svg>
