<svg width="40" height="21" viewBox="0 0 40 21" fill="none" xmlns="http://www.w3.org/2000/svg">
<rect y="0.5" width="40" height="20" fill="#60B73D"/>
<path d="M15.7773 5.92188V12.9766H10.6562V5.92188H15.7773ZM12.1328 7.09375V11.793H14.2891V7.09375H12.1328ZM18.7305 4.91406V8.93359H20.3008V10.1758H18.7305V15.5781H17.2305V4.91406H18.7305ZM25.5508 5.06641C28 5.06641 29.418 5.71094 29.4297 6.88281C29.418 8.06641 28 8.71094 25.5508 8.71094C23.0898 8.71094 21.6602 8.06641 21.6602 6.88281C21.6602 5.71094 23.0898 5.06641 25.5508 5.06641ZM25.5508 6.15625C23.9805 6.15625 23.2188 6.41406 23.2305 6.88281C23.2188 7.41016 23.9805 7.60938 25.5508 7.60938C27.1328 7.60938 27.8828 7.41016 27.8828 6.88281C27.8828 6.41406 27.1328 6.15625 25.5508 6.15625ZM30.4141 9.21484V10.3984H20.6875V9.21484H30.4141ZM29.2305 11.0195V13.7383H23.2891V14.3828H29.5117V15.5078H21.8242V12.6953H27.7539V12.1094H21.8125V11.0195H29.2305Z" fill="white"/>
</svg>
