<svg width="50" height="50" viewBox="0 0 50 50" fill="none" xmlns="http://www.w3.org/2000/svg">
<g id="ico">
<circle id="Ellipse 51" cx="25" cy="25" r="25" fill="#F2F6FF"/>
<g id="credit_score">
<mask id="mask0_311_70377" style="mask-type:alpha" maskUnits="userSpaceOnUse" x="10" y="10" width="30" height="30">
<rect id="Bounding box" x="10.7129" y="10.7146" width="28.5714" height="28.5714" fill="#D9D9D9"/>
</mask>
<g mask="url(#mask0_311_70377)">
<path id="directions_bus" d="M18.2084 35.7147C17.9312 35.7147 17.691 35.6317 17.4878 35.4657C17.2847 35.2996 17.1831 35.0881 17.1831 34.8313V32.4816C16.693 32.1558 16.3255 31.7282 16.0805 31.1987C15.8354 30.6693 15.7129 30.1007 15.7129 29.4929V18.4591C15.7129 17.0159 16.4545 15.9596 17.9376 15.2902C19.4207 14.6208 21.7808 14.2861 25.018 14.2861C28.268 14.2861 30.6248 14.6151 32.0886 15.273C33.5524 15.9309 34.2843 16.9929 34.2843 18.4591V29.4929C34.2843 30.1007 34.1618 30.6693 33.9167 31.1987C33.6717 31.7282 33.3042 32.1558 32.8141 32.4816V34.8313C32.8141 35.0881 32.7125 35.2996 32.5094 35.4657C32.3063 35.6317 32.0661 35.7147 31.7888 35.7147H31.0343C30.7383 35.7147 30.4902 35.6317 30.29 35.4657C30.0898 35.2996 29.9897 35.0881 29.9897 34.8313V33.4215H20.0075V34.8313C20.0075 35.0881 19.9074 35.2996 19.7072 35.4657C19.507 35.6317 19.2589 35.7147 18.9629 35.7147H18.2084ZM17.6474 23.8538H32.3498V19.4741H17.6474V23.8538ZM20.6664 30.226C21.1235 30.226 21.5116 30.0705 21.8308 29.7596C22.15 29.4488 22.3096 29.0713 22.3096 28.6271C22.3096 28.183 22.1496 27.8059 21.8297 27.4957C21.5097 27.1856 21.1212 27.0305 20.6641 27.0305C20.2071 27.0305 19.8189 27.1859 19.4997 27.4968C19.1805 27.8077 19.0209 28.1852 19.0209 28.6293C19.0209 29.0735 19.1809 29.4506 19.5009 29.7608C19.8208 30.0709 20.2093 30.226 20.6664 30.226ZM29.3331 30.226C29.7902 30.226 30.1783 30.0705 30.4975 29.7596C30.8167 29.4488 30.9763 29.0713 30.9763 28.6271C30.9763 28.183 30.8163 27.8059 30.4964 27.4957C30.1764 27.1856 29.7879 27.0305 29.3308 27.0305C28.8737 27.0305 28.4856 27.1859 28.1664 27.4968C27.8472 27.8077 27.6876 28.1852 27.6876 28.6293C27.6876 29.0735 27.8476 29.4506 28.1675 29.7608C28.4875 30.0709 28.876 30.226 29.3331 30.226Z" fill="#394FE9"/>
</g>
</g>
</g>
</svg>
