<svg width="40" height="21" viewBox="0 0 40 21" fill="none" xmlns="http://www.w3.org/2000/svg">
<rect y="0.5" width="40" height="20" fill="#00AFAB"/>
<path d="M13.3516 5.23047C14.9688 5.23047 16.1992 6.23828 16.1992 7.66797C16.1992 9.07422 14.9688 10.0938 13.3516 10.0938C11.6992 10.0938 10.4805 9.07422 10.4805 7.66797C10.4805 6.23828 11.6992 5.23047 13.3516 5.23047ZM13.3516 6.44922C12.5312 6.44922 11.9219 6.89453 11.9336 7.66797C11.9219 8.42969 12.5312 8.88672 13.3516 8.88672C14.1602 8.88672 14.7578 8.42969 14.7578 7.66797C14.7578 6.89453 14.1602 6.44922 13.3516 6.44922ZM19.2461 4.91406V10.2578H17.7461V4.91406H19.2461ZM19.2461 10.7031V13.5977H13.5742V14.2891H19.5391V15.4609H12.1094V12.5078H17.7578V11.8516H12.0859V10.7031H19.2461ZM29.1484 4.92578V7.92578H30.5898V9.15625H29.1484V12.7773H27.6484V4.92578H29.1484ZM29.5352 14.1953V15.3906H22.2344V11.9688H23.7227V14.1953H29.5352ZM22.4922 5.67578V7.22266H24.6719V5.67578H26.1719V11.0781H21.0039V5.67578H22.4922ZM22.4922 9.90625H24.6719V8.37109H22.4922V9.90625Z" fill="white"/>
</svg>
