<svg width="70" height="70" viewBox="0 0 70 70" fill="none" xmlns="http://www.w3.org/2000/svg">
<g id="ico">
<circle id="Ellipse 51" cx="35" cy="35" r="35" fill="#F2F6FF"/>
<g id="savings">
<mask id="mask0_311_69457" style="mask-type:alpha" maskUnits="userSpaceOnUse" x="15" y="15" width="40" height="40">
<rect id="Bounding box" x="15" y="15" width="40" height="40" fill="#D9D9D9"/>
</mask>
<g mask="url(#mask0_311_69457)">
<path id="savings_2" d="M41.667 33.1409C42.075 33.1409 42.4228 32.9973 42.7103 32.7101C42.9975 32.4226 43.1412 32.0748 43.1412 31.6667C43.1412 31.2587 42.9975 30.9109 42.7103 30.6234C42.4228 30.3362 42.075 30.1926 41.667 30.1926C41.2589 30.1926 40.9112 30.3362 40.6237 30.6234C40.3364 30.9109 40.1928 31.2587 40.1928 31.6667C40.1928 32.0748 40.3364 32.4226 40.6237 32.7101C40.9112 32.9973 41.2589 33.1409 41.667 33.1409ZM28.3337 29.1776H36.667V27.0834H28.3337V29.1776ZM23.1253 49.1667C22.245 46.1281 21.3653 43.1047 20.4862 40.0963C19.6067 37.0877 19.167 34.0001 19.167 30.8334C19.167 28.5129 19.9757 26.5438 21.5932 24.9263C23.2107 23.3088 25.1798 22.5001 27.5003 22.5001H36.2503C37.0131 21.4979 37.9282 20.6917 38.9957 20.0817C40.063 19.4717 41.2312 19.1667 42.5003 19.1667C42.9598 19.1667 43.3524 19.3244 43.6782 19.6397C44.0041 19.9547 44.167 20.3419 44.167 20.8013C44.167 20.983 44.1082 21.2383 43.9907 21.5672C43.8582 21.9691 43.738 22.3698 43.6299 22.7692C43.5221 23.169 43.4298 23.5781 43.3528 23.9967L47.6895 28.3334H50.8337V38.5159L46.2853 40.0097L43.542 49.1667H35.8337V45.8334H30.8337V49.1667H23.1253Z" fill="#394FE9"/>
</g>
</g>
</g>
</svg>
