<svg width="70" height="70" viewBox="0 0 70 70" fill="none" xmlns="http://www.w3.org/2000/svg">
<g id="ico">
<circle id="Ellipse 51" cx="35" cy="35" r="35" fill="#F2F6FF"/>
<g id="credit_card_heart">
<mask id="mask0_311_69468" style="mask-type:alpha" maskUnits="userSpaceOnUse" x="15" y="15" width="40" height="40">
<rect id="Bounding box" x="15" y="15" width="40" height="40" fill="#D9D9D9"/>
</mask>
<g mask="url(#mask0_311_69468)">
<path id="credit_card_heart_2" d="M21.2612 45.4058V32.3292V33.14V24.5942V45.4058ZM44.5291 49.06L39.1445 43.6754C38.8048 43.3354 38.5666 42.9758 38.4299 42.5967C38.2932 42.2175 38.2249 41.8356 38.2249 41.4508C38.2249 40.6261 38.5175 39.8932 39.1028 39.2521C39.6884 38.6112 40.4438 38.2908 41.3691 38.2908C42.0932 38.2908 42.6616 38.4579 43.0741 38.7921C43.4863 39.1265 43.9713 39.5726 44.5291 40.1304C45.0527 39.6068 45.5249 39.1693 45.9457 38.8179C46.3669 38.4665 46.9481 38.2908 47.6895 38.2908C48.6423 38.2908 49.4045 38.6156 49.9762 39.265C50.5478 39.9144 50.8337 40.6517 50.8337 41.4767C50.8337 41.8611 50.7584 42.2457 50.6078 42.6304C50.457 43.0149 50.2256 43.3632 49.9137 43.6754L44.5291 49.06ZM21.2612 29.1925H48.7395V25.1067C48.7395 24.9786 48.6862 24.8611 48.5795 24.7542C48.4725 24.6475 48.355 24.5942 48.227 24.5942H21.7737C21.6456 24.5942 21.5281 24.6475 21.4212 24.7542C21.3145 24.8611 21.2612 24.9786 21.2612 25.1067V29.1925ZM33.8495 47.5H21.7737C21.0575 47.5 20.4441 47.2446 19.9332 46.7337C19.4224 46.2229 19.167 45.6094 19.167 44.8933V25.1067C19.167 24.3906 19.4224 23.7771 19.9332 23.2663C20.4441 22.7554 21.0575 22.5 21.7737 22.5H48.227C48.9431 22.5 49.5566 22.7554 50.0674 23.2663C50.5782 23.7771 50.8337 24.3906 50.8337 25.1067V34.2488C49.9256 33.6399 48.9406 33.1676 47.8787 32.8321C46.8167 32.4968 45.7002 32.3292 44.5291 32.3292C43.5149 32.3292 42.5332 32.4643 41.5841 32.7346C40.6352 33.0049 39.7548 33.3853 38.9428 33.8758H21.2612V44.8933C21.2612 45.0214 21.3145 45.1389 21.4212 45.2458C21.5281 45.3525 21.6456 45.4058 21.7737 45.4058H33.3257C33.3788 45.7761 33.4488 46.1356 33.5357 46.4842C33.6224 46.8331 33.727 47.1717 33.8495 47.5Z" fill="#394FE9"/>
</g>
</g>
</g>
</svg>
