<svg xmlns="http://www.w3.org/2000/svg" width="50" height="50" fill="none"><mask id="a" width="50" height="50" x="0" y="0" maskUnits="userSpaceOnUse" style="mask-type:alpha"><path fill="#D9D9D9" d="M0 0h50v50H0z"/></mask><g mask="url(#a)"><path fill="#394FE9" d="M11.0575 42.7083c-1.0389 0-1.92636-.3679-2.66219-1.1038-.73587-.7358-1.10381-1.6232-1.10381-2.6622V11.0578c0-1.039.36794-1.92642 1.10381-2.66225.73583-.73587 1.62329-1.1038 2.66219-1.1038H38.942c1.039 0 1.9264.36793 2.6623 1.1038.7358.73583 1.1038 1.62325 1.1038 2.66225v13.177c-.5128-.219-1.0263-.4046-1.5405-.5569-.5141-.1522-1.0423-.2737-1.5845-.3645V11.0578c0-.1603-.0668-.3072-.2003-.4408-.1336-.1335-.2805-.2003-.4408-.2003H11.0575c-.1602 0-.3072.0668-.4407.2003-.1336.1336-.2003.2805-.2003.4408v27.8845c0 .1602.0667.3072.2003.4407.1335.1336.2805.2004.4407.2004H23.261c.0775.5769.1923 1.1224.3446 1.6365.1522.5142.3378 1.0103.5568 1.4884H11.0575Zm-.641-3.1249V10.4167v12.8967-.1563 16.4263Zm4.6875-4.928h8.3694c.0908-.5421.2257-1.0703.4046-1.5845.179-.5141.374-1.0276.585-1.5404h-9.359v3.1249Zm0-8.0929h13.2092c.8974-.7612 1.8549-1.3989 2.8725-1.913 1.0176-.5142 2.1073-.8794 3.2691-1.0958v-.1161H15.104v3.1249Zm0-8.0929h19.7916v-3.125H15.104v3.125Zm22.3958 28.5255c-2.6015 0-4.8143-.9121-6.6386-2.7363-1.8242-1.8243-2.7364-4.0371-2.7364-6.6386 0-2.6015.9122-4.8143 2.7364-6.6386 1.8243-1.8242 4.0371-2.7363 6.6386-2.7363 2.6014 0 4.8143.9121 6.6386 2.7363 1.8242 1.8243 2.7363 4.0371 2.7363 6.6386 0 2.6015-.9121 4.8143-2.7363 6.6386-1.8243 1.8242-4.0372 2.7363-6.6386 2.7363Zm-.9215-3.2451h1.8429v-5.2083h5.2084v-1.8429h-5.2084v-5.2084h-1.8429v5.2084H31.37v1.8429h5.2083V43.75Z"/></g></svg>