<svg xmlns="http://www.w3.org/2000/svg" width="238" height="30" fill="none"><g fill="#223870" clip-path="url(#a)"><path d="M9.863 18.497H5.259c.336.363.537 1.359.537 2.084v4.561c0 1.524.538 1.95 2.11 1.95h14.292v-1.653H9.863v-6.946.004ZM14.873 4.15H9.461V2H4.99c.315.282.425 1.114.425 1.7v.45H0V5.8h3.54C1.967 6.864.918 8.593.885 10.725c.051 3.602 2.999 6.075 6.513 6.075s6.491-2.477 6.539-6.074c-.026-2.133-1.083-3.862-2.666-4.928h3.602V4.15ZM7.395 15.13c-1.778 0-2.974-1.799-2.992-4.385.018-2.587 1.21-4.385 2.992-4.385 1.78 0 3.006 1.798 3.02 4.385-.018 2.586-1.225 4.385-3.02 4.385ZM21.273 2.55h-4.604c.45.362.563 1.362.563 2.12v15.285h2.337c1.144 0 1.704-.502 1.704-1.766v-8.126h3.982V8.415h-3.982V2.55ZM75.075 2.55H70.69c.446.362.563 1.362.563 2.12v12.3h2.118c1.145 0 1.704-.506 1.704-1.767v-5.14h3.035V8.415h-3.035V2.55ZM40.977 5.107c.066-.883-.417-1.557-1.346-1.557h-10.77v1.652h8.024c0 5.847-3.507 9.54-9.384 10.525l.727 1.11c7.596-.901 12.193-4.41 12.749-11.727"/><path d="M49.278 2.575h-4.64c.479.367.716 1.363.716 2.125v1.817h-4.22V8.17h4.22v2.389h-4.359v1.649h4.36v3.77a8.338 8.338 0 0 0-3.39-.7c-3.936 0-7.234 2.59-7.286 6.36.055 3.77 3.354 6.36 7.285 6.36 3.932 0 7.26-2.59 7.314-6.36 0-.07-.003-.14-.007-.21l.007.008V2.575Zm-7.321 23.703c-2.114 0-3.533-1.897-3.555-4.62.022-2.722 1.441-4.62 3.555-4.62s3.573 1.898 3.591 4.62c-.018 2.723-1.455 4.62-3.591 4.62ZM98.553 2.55c.45.362.567 1.362.567 2.12v3.741h-3.81v1.649h3.81v7.48H86.894c.337.367.534 1.364.534 2.096v5.506c0 1.524.538 1.95 2.114 1.95H103V2.55H98.553Zm.567 22.893h-7.812v-6.25h7.812v6.25Z"/><path d="M93.89 3.546H82.36v1.652h8.78c0 1.601-.281 3.004-.804 4.246h-7.413v1.652h6.524c-1.755 2.602-4.754 4.338-8.448 5.576l.724 1.11c7.666-1.337 13.51-5.868 13.51-12.675.065-.883-.414-1.557-1.343-1.557v-.004ZM60.03 13.99V5.196h8.14V3.546H55.617c.336.366.534 1.363.534 2.088v8.056c0 1.524.538 1.946 2.11 1.946h11.044v-1.649H60.03v.004ZM69.377 18.779v-.762c0-.623-.413-1.019-1.345-1.019H64.93s.351.323.351 1.081v.7c0 3.718-4.044 6.953-7.676 8.027l.728.74c3.628-.48 6.963-2.4 8.996-4.594 2.034 2.194 5.369 4.114 8.997 4.594l.727-.74c-3.635-1.074-7.676-4.309-7.676-8.027Z"/></g><path fill="#888" d="M115.984 20.445V8.31c0-.525-.025-.931-.076-1.22-.034-.304-.135-.524-.304-.66-.17-.152-.415-.245-.737-.279-.321-.05-.762-.076-1.32-.076V4.83c.254.017.575.034.965.05.406 0 .846.01 1.32.026h2.996c.474-.017.914-.025 1.32-.025.424 0 .762-.009 1.016-.026v1.22c-.559 0-.999.025-1.32.075-.305.034-.542.127-.711.28-.153.135-.254.355-.305.66-.034.288-.051.694-.051 1.219v12.136c0 .525.026.948.077 1.27.05.305.16.541.33.71.169.17.406.288.711.356.321.051.744.076 1.269.076v1.22a89.684 89.684 0 0 0-1.625-.052h-2.184a99.618 99.618 0 0 0-3.808.076v-1.244c.525 0 .948-.025 1.269-.076.322-.067.567-.186.737-.355.186-.17.304-.406.355-.711.051-.322.076-.745.076-1.27Zm22.623-15.59-.203 4.038h-1.599a10.46 10.46 0 0 0-.102-1.245c-.034-.321-.127-.567-.279-.736-.136-.186-.347-.313-.635-.38-.271-.068-.643-.102-1.117-.102h-3.123v14.015c0 .542.025.974.076 1.295.051.305.161.542.33.711.169.152.415.262.736.33.322.051.745.076 1.27.076v1.194a51.902 51.902 0 0 0-1.752-.026H128.07c-.677.017-1.252.034-1.726.051v-1.219c.524 0 .939-.025 1.244-.076.322-.067.567-.177.736-.33.169-.17.28-.406.33-.71.068-.322.102-.754.102-1.296V6.43h-2.666c-.508 0-.923.034-1.244.101-.305.051-.559.161-.762.33-.186.17-.347.424-.482.762-.119.322-.237.745-.356 1.27h-1.65l.355-4.038c1.134.051 2.429.085 3.885.102a382.208 382.208 0 0 0 8.887 0 597.4 597.4 0 0 0 3.884-.102Zm15.819 16.53c.423-.034.787-.051 1.092-.051.321-.017.6-.034.837-.05.559-.018 1.143-.052 1.752-.102l1.803-.153c.61-.067 1.194-.135 1.752-.203.559-.067 1.067-.127 1.524-.178l-.356 2.362a85.504 85.504 0 0 0-1.219-.051 41.522 41.522 0 0 0-1.523-.025 54.65 54.65 0 0 0-1.701-.026 58.01 58.01 0 0 0-3.403 0c-.66 0-1.379.017-2.158.051-.762.017-1.549.042-2.361.076-.813.017-1.583.043-2.311.076a59.02 59.02 0 0 0-1.98.076c-.593.034-1.05.06-1.371.077-.643.034-1.354.093-2.133.177-.779.068-1.481.153-2.108.254l-.939-2.59c.372.051.77.102 1.193.153.441.034.889.068 1.346.101l1.346.102c.457.017.88.034 1.269.05.187.018.398.026.635.026h.838v-6.474c0-.254-.017-.466-.051-.635a.757.757 0 0 0-.254-.432c-.118-.118-.304-.22-.558-.305a5.983 5.983 0 0 0-1.016-.279l.483-.99c.473.017 1.091.05 1.853.101.779.034 1.65.178 2.615.432a6.148 6.148 0 0 0-.101.533l-.102.66a9.903 9.903 0 0 0-.101.94v6.424c.44-.017.88-.026 1.32-.026l1.32-.05v-7.034c0-.254-.025-.465-.076-.634a.728.728 0 0 0-.279-.458c-.136-.135-.339-.253-.61-.355a7.612 7.612 0 0 0-1.015-.305l.533-1.04.914.126c.389.034.796.085 1.219.153.44.067.871.135 1.295.203.423.067.787.135 1.091.203a8.622 8.622 0 0 0-.101.584l-.102.66c-.034.203-.059.39-.076.559-.017.169-.025.279-.025.33v6.957Zm.787-3.352c.169-.812.338-1.701.508-2.666.169-.982.313-1.963.431-2.945.136-.999.246-1.955.33-2.87.102-.913.17-1.717.204-2.411h-2.082c-.762 0-1.532.008-2.311.025-.762 0-1.498.017-2.209.05-.694.018-1.295.052-1.803.102l-.939.127c-.373.034-.77.076-1.194.127a45.4 45.4 0 0 0-1.269.178c-.423.05-.821.11-1.193.178l-1.219-2.387c.321.034.685.068 1.092.102a31.9 31.9 0 0 1 1.269.076c.423.034.821.059 1.193.076.39.017.72.025.991.025.897 0 1.904-.008 3.021-.025 1.117-.034 2.235-.076 3.352-.127a88.119 88.119 0 0 0 3.25-.203 37.75 37.75 0 0 0 2.717-.305l.812.787a101.427 101.427 0 0 1-1.092 6.17 42.299 42.299 0 0 1-1.676 5.916h-2.183Zm16.529-1.904c-.609.017-1.151.034-1.625.05-.474.018-.846.026-1.117.026-.305.017-.643.042-1.016.076l-1.091.102c-.373.034-.745.076-1.118.127-.355.034-.677.067-.964.101l-1.016-2.513c.762.084 1.625.169 2.59.254.965.067 1.828.118 2.59.152.406.017.939.025 1.599.025s1.38-.008 2.158-.025c.796-.017 1.617-.034 2.463-.05a1079.122 1079.122 0 0 0 4.647-.102c.66-.034 1.193-.06 1.599-.077.559-.017 1.143-.05 1.752-.101l1.803-.152a87.061 87.061 0 0 1 1.752-.178 74.134 74.134 0 0 0 1.549-.203l-.406 2.437c-.339-.034-.745-.06-1.219-.076-.457-.034-.957-.05-1.498-.05-.542-.018-1.1-.035-1.676-.052a57.958 57.958 0 0 0-1.701-.025h-.381c-.118 0-.254.008-.406.025v.254c0 .44-.017.88-.051 1.32-.017.424-.042.822-.076 1.194.575-.05 1.117-.093 1.625-.127l1.295-.127-.127 1.117c-.017.305-.026.601-.026.889v2.59c0 .49-.025 1.032-.076 1.625-.051.61-.178 1.278-.381 2.006l-2.209.406a15.782 15.782 0 0 1-.101-.762 173.81 173.81 0 0 1-.051-.965l-.051-.965a14.035 14.035 0 0 1-.025-.761v-3.326a40.66 40.66 0 0 0-2.031 0c-.711.017-1.439.05-2.184.101a47.39 47.39 0 0 0-2.184.152c-.711.051-1.388.094-2.031.127-.541.034-1.092.093-1.65.178L169 21.08l-1.143-2.437c.254.033.542.076.864.127.338.033.685.076 1.041.127.355.033.702.067 1.041.101.338.017.635.025.888.025h.102l-.051-1.27V16.13ZM177.76 3.89a7.401 7.401 0 0 1 1.904.634 5.469 5.469 0 0 1 1.498 1.041c.423.39.745.83.965 1.32.237.492.355 1.008.355 1.55 0 .643-.16 1.244-.482 1.802a4.806 4.806 0 0 1-1.346 1.473c-.558.406-1.227.728-2.006.965a8.334 8.334 0 0 1-2.488.355c-.88 0-1.701-.118-2.463-.355a6.804 6.804 0 0 1-1.955-.965 5.094 5.094 0 0 1-1.295-1.473 3.714 3.714 0 0 1-.457-1.802c0-.576.127-1.126.381-1.65.271-.526.635-.991 1.092-1.397a6.022 6.022 0 0 1 1.625-1.016 7.2 7.2 0 0 1 2.057-.533.58.58 0 0 0-.229-.432c-.135-.118-.398-.22-.787-.304l.482-.915 3.428.686a8.719 8.719 0 0 0-.127.432c-.051.186-.101.38-.152.584Zm1.777 4.392c0-.423-.093-.82-.279-1.193a3.086 3.086 0 0 0-.737-.99 3.568 3.568 0 0 0-1.041-.686 3.021 3.021 0 0 0-1.218-.254c-.44 0-.864.085-1.27.254-.389.17-.736.398-1.041.686-.288.27-.516.6-.685.99-.17.372-.254.77-.254 1.193 0 .474.084.906.254 1.295.169.373.397.694.685.965.305.254.652.457 1.041.61.39.135.813.202 1.27.202.44 0 .855-.067 1.244-.203a3.317 3.317 0 0 0 1.041-.609c.305-.27.542-.592.711-.965.186-.39.279-.82.279-1.295Zm-4.875 7.947c0 .474-.017.957-.051 1.448-.034.474-.076.914-.127 1.32.576-.068 1.168-.11 1.778-.127.609-.017 1.235-.034 1.879-.05 0-.39-.009-.796-.026-1.22-.017-.44-.025-.803-.025-1.091v-.584l-1.701.05c-.559.017-1.134.043-1.727.077v.177Zm28.184-4.214c-.627.05-1.236.127-1.828.228-.593.085-1.101.17-1.524.254l-1.269-2.31c.711.084 1.328.169 1.853.253a9.142 9.142 0 0 0 1.473.077c.186 0 .381-.009.584-.026.22-.017.457-.025.711-.025V6.53c0-.237-.034-.448-.102-.635a1.19 1.19 0 0 0-.381-.507c-.186-.17-.448-.322-.787-.457a10.2 10.2 0 0 0-1.346-.407l.584-1.091c.407.05.838.118 1.295.203.474.067.94.152 1.397.254.457.084.897.177 1.32.279.423.085.787.17 1.092.254a7.48 7.48 0 0 0-.102.61l-.101.736a12.52 12.52 0 0 0-.102.939v8.531c0 .423-.008.889-.025 1.397a22.92 22.92 0 0 1-.102 1.523c-.034.491-.084.965-.152 1.422-.051.44-.119.804-.203 1.092l-2.133.305a10.936 10.936 0 0 1-.051-.686c-.017-.339-.034-.711-.051-1.117l-.05-1.219v-5.941Zm-5.84-.559c.389.406.812.813 1.269 1.219l1.371 1.219c.474.389.94.761 1.397 1.117.457.355.88.668 1.269.94l-2.285 1.853c-.626-.813-1.278-1.65-1.955-2.514a60.621 60.621 0 0 0-2.082-2.514 17.029 17.029 0 0 1-2.793 3.047 39.702 39.702 0 0 1-3.478 2.64l-.737-.913a16.547 16.547 0 0 0 2.336-2.158 22.27 22.27 0 0 0 1.955-2.514 19.223 19.223 0 0 0 1.473-2.615c.406-.88.719-1.718.94-2.514.101-.423.101-.702 0-.838-.085-.135-.153-.22-.204-.254-.186-.101-.406-.22-.66-.355a2.593 2.593 0 0 0-.685-.305l.685-.94c.593.12 1.261.288 2.006.508.762.22 1.625.474 2.59.762-.339.965-.703 1.87-1.092 2.717-.389.846-.829 1.65-1.32 2.412Zm7.973-9.115c.406.05.854.127 1.345.228.508.085 1.007.178 1.498.28.508.084.99.177 1.448.279.457.085.846.16 1.168.228a7.48 7.48 0 0 0-.102.61c-.017.254-.042.5-.076.736a55.952 55.952 0 0 1-.076.965v9.37c0 .507-.017 1.049-.051 1.624a26.062 26.062 0 0 1-.102 1.65 24.278 24.278 0 0 1-.152 1.6c-.068.508-.144.965-.229 1.371l-2.158.33c-.034-.27-.059-.618-.076-1.04l-.051-1.321c0-.457-.008-.897-.025-1.32V5.566c0-.49-.203-.897-.61-1.218-.389-.322-1.134-.618-2.234-.889l.483-1.117Zm6.195 23.74c-1.016-.034-2.099-.06-3.25-.076-1.134 0-2.26.008-3.377.025-1.117.034-2.184.068-3.199.102a73.89 73.89 0 0 0-2.59.127c-.711.05-1.21-.085-1.498-.407-.288-.304-.432-.651-.432-1.04v-3.2c0-.355-.017-.643-.051-.863a.866.866 0 0 0-.279-.533c-.135-.136-.355-.254-.66-.356a15.6 15.6 0 0 0-1.219-.355l.457-1.143c.254.034.593.076 1.016.127.44.051.888.11 1.346.178.473.068.93.127 1.371.178.44.05.787.093 1.041.127a34.059 34.059 0 0 0-.102 1.016l-.051.583a5.613 5.613 0 0 0-.025.508V24c0 .288.025.457.076.508.068.05.229.084.482.101.627.017 1.422 0 2.387-.05.965-.051 1.972-.119 3.022-.204a90.316 90.316 0 0 0 3.148-.304 92.583 92.583 0 0 0 2.768-.305l-.381 2.336Zm19.906-12.543c-.711.034-1.456.11-2.234.229-.762.118-1.405.245-1.93.38l-1.041-1.98-.381 1.879a75.368 75.368 0 0 0-2.793-.05c-.948 0-1.862.024-2.742.075v3.936c0 .237.025.398.076.482.068.068.212.093.432.076a25.343 25.343 0 0 0 4.265-.609 54.868 54.868 0 0 0 4.545-1.27v1.32a67.879 67.879 0 0 1-4.646 1.499 51.743 51.743 0 0 1-4.85 1.142c-.914.17-1.599.06-2.056-.33-.44-.406-.661-1.015-.661-1.828v-8.48c0-.288-.025-.533-.076-.737a1.112 1.112 0 0 0-.279-.584c-.152-.169-.381-.313-.686-.431-.287-.136-.685-.263-1.193-.381l.559-1.117c.981.152 2.031.245 3.148.28a45.6 45.6 0 0 0 3.402-.026 63.533 63.533 0 0 0 3.276-.229 56.863 56.863 0 0 0 2.844-.38l-.457 2.26a60.145 60.145 0 0 0-4.215-.052 65.04 65.04 0 0 0-3.428.127v3.809c.965-.085 1.972-.186 3.021-.305a60.26 60.26 0 0 0 2.971-.406l-.025.102c.643.084 1.219.143 1.726.177.525.034.999.042 1.422.026.237-.017.533-.034.889-.051.355-.034.728-.068 1.117-.102V5.566c0-.49-.245-.888-.736-1.193-.491-.322-1.304-.626-2.438-.914l.533-1.117c.407.05.872.118 1.397.203.542.085 1.075.178 1.6.28.541.1 1.057.194 1.548.279.491.084.906.152 1.245.203a7.48 7.48 0 0 0-.102.609l-.102.762a42.5 42.5 0 0 1-.076.99v13.94c0 .524-.017 1.133-.051 1.828-.016.677-.05 1.362-.101 2.056a34.52 34.52 0 0 1-.152 1.98c-.051.627-.11 1.126-.178 1.499l-2.158.304c-.034-.27-.068-.643-.102-1.117-.017-.457-.034-.956-.051-1.498l-.051-1.65a55.319 55.319 0 0 1-.025-1.575V13.54Z"/><defs><clipPath id="a"><path fill="#fff" d="M0 2h103v26H0z"/></clipPath></defs></svg>