<?xml version="1.0" encoding="utf-8"?>
<!-- Generator: Adobe Illustrator 26.5.0, SVG Export Plug-In . SVG Version: 6.00 Build 0)  -->
<svg version="1.1" id="Layer_1" xmlns="http://www.w3.org/2000/svg" xmlns:xlink="http://www.w3.org/1999/xlink" x="0px" y="0px"
	 width="74.5px" height="18.8px" viewBox="0 0 74.5 18.8" style="enable-background:new 0 0 74.5 18.8;" xml:space="preserve">
<style type="text/css">
	.st0{fill:#142C68;}
</style>
<g>
	<path class="st0" d="M7.1,11.9H3.8c0.2,0.3,0.4,1,0.4,1.5v3.3c0,1.1,0.4,1.4,1.5,1.4H16v-1.2H7.1V11.9z"/>
	<path class="st0" d="M10.8,1.6h-4V0H3.6c0.2,0.2,0.3,0.8,0.3,1.2v0.3H0v1.2h2.6c-1.1,0.8-1.9,2-1.9,3.6c0,2.6,2.2,4.4,4.7,4.4
		c2.6,0,4.7-1.8,4.7-4.4c0-1.5-0.8-2.8-1.9-3.6h2.6C10.8,2.7,10.8,1.6,10.8,1.6z M5.4,9.5c-1.3,0-2.2-1.3-2.2-3.2s0.9-3.2,2.2-3.2
		s2.2,1.3,2.2,3.2C7.5,8.2,6.7,9.5,5.4,9.5z"/>
	<path class="st0" d="M15.4,0.4h-3.3c0.3,0.3,0.4,1,0.4,1.5v11h1.7c0.8,0,1.2-0.4,1.2-1.3V5.8h2.9V4.6h-2.9V0.4z"/>
	<path class="st0" d="M54.3,0.4h-3.2c0.3,0.3,0.4,1,0.4,1.5v8.9H53c0.8,0,1.2-0.4,1.2-1.3V5.8h2.2V4.6h-2.2L54.3,0.4L54.3,0.4z"/>
	<path class="st0" d="M29.6,2.2c0-0.6-0.3-1.1-1-1.1h-7.8v1.2h5.8c0,4.2-2.5,6.9-6.8,7.6l0.5,0.8C25.9,10.1,29.2,7.5,29.6,2.2"/>
	<path class="st0" d="M35.7,0.4h-3.4c0.3,0.3,0.5,1,0.5,1.5v1.3h-3.1v1.2h3.1v1.7h-3.2v1.2h3.2V10c-0.7-0.3-1.6-0.5-2.5-0.5
		c-2.8,0-5.2,1.9-5.3,4.6c0,2.7,2.4,4.6,5.3,4.6s5.3-1.9,5.3-4.6c0-0.1,0-0.1,0-0.2l0,0V0.4H35.7z M30.4,17.5
		c-1.5,0-2.6-1.4-2.6-3.3c0-2,1-3.3,2.6-3.3c1.5,0,2.6,1.4,2.6,3.3C32.9,16.2,31.9,17.5,30.4,17.5z"/>
	<path class="st0" d="M71.3,0.4c0.3,0.3,0.4,1,0.4,1.5v2.7H69v1.2h2.8v5.4H63c0.2,0.3,0.4,1,0.4,1.5v4c0,1.1,0.4,1.4,1.5,1.4h9.7
		V0.4H71.3z M71.7,16.9H66v-4.5h5.7V16.9z"/>
	<path class="st0" d="M67.9,1.1h-8.3v1.2H66c0,1.2-0.2,2.2-0.6,3.1H60v1.2h4.7c-1.3,1.9-3.4,3.1-6.1,4l0.5,0.8
		c5.5-1,9.8-4.2,9.8-9.2C69,1.6,68.6,1.1,67.9,1.1z"/>
	<path class="st0" d="M43.4,8.7V2.3h5.9V1.1h-9.1c0.2,0.3,0.4,1,0.4,1.5v5.8c0,1.1,0.4,1.4,1.5,1.4h8V8.7H43.4z"/>
	<path class="st0" d="M50.2,12.1v-0.5c0-0.5-0.3-0.7-1-0.7H47c0,0,0.3,0.2,0.3,0.8c0,0.2,0,0.3,0,0.5c0,2.7-2.9,5-5.6,5.8l0.5,0.5
		c2.6-0.3,5-1.7,6.5-3.3c1.5,1.6,3.9,3,6.5,3.3l0.5-0.5C53.1,17.1,50.2,14.8,50.2,12.1z"/>
</g>
</svg>
