<?xml version="1.0" encoding="utf-8"?>
<!-- Generator: Adobe Illustrator 25.2.3, SVG Export Plug-In . SVG Version: 6.00 Build 0)  -->
<svg version="1.1" id="레이어_1" xmlns="http://www.w3.org/2000/svg" xmlns:xlink="http://www.w3.org/1999/xlink" x="0px"
	 y="0px" width="116px" height="19.4px" viewBox="0 0 116 19.4" style="enable-background:new 0 0 116 19.4;" xml:space="preserve">
<style type="text/css">
	.st0{fill:#142C5F;}
</style>
<g>
	<path class="st0" d="M36.7,1.6c0-0.6-0.5-1-1.1-1H23.1v1.2h10.6v2.9c0,1-0.1,2.1-0.4,3H20.9v1.2h7.2v2.4h-5.2v1.2h10.7v6.1h1.7
		c0.9,0,1.2-0.4,1.2-1.4v-5.1c0-0.6-0.5-1.1-1-1.1h-4.5V8.7h7.7V7.5h-3c0.5-0.6,0.9-2,0.9-3V1.6z"/>
	<path class="st0" d="M7.3,12.3H3.9c0.2,0.2,0.4,1,0.4,1.5v3.4c0,1.2,0.5,1.5,1.6,1.5h10.7v-1.2H7.3V12.3z"/>
	<path class="st0" d="M11.1,1.6H7V0H3.7C4,0.2,4.1,0.9,4.1,1.2v0.4H0v1.2h2.6c-1.1,0.7-2,2-2,3.6c0,2.7,2.2,4.5,4.8,4.5
		s4.8-1.9,4.8-4.5c0-1.6-0.7-2.9-2-3.6h2.7V1.6z M5.5,9.8c-1.4,0-2.2-1.4-2.2-3.2s0.9-3.2,2.2-3.2s2.2,1.4,2.2,3.2S6.8,9.8,5.5,9.8z
		"/>
	<path class="st0" d="M15.8,0.4h-3.5c0.4,0.2,0.4,1,0.4,1.6v11.4h1.7c0.9,0,1.2-0.4,1.2-1.4V6h3V4.7h-3L15.8,0.4L15.8,0.4z"/>
	<path class="st0" d="M75.7,0.4c0.4,0.2,0.6,1,0.6,1.6v16.6h1.4c1,0,1.4-0.6,1.4-1.6V0.4H75.7z"/>
	<path class="st0" d="M72.2,6.2h-3v1.2h3V17h1.4c1,0,1.4-0.5,1.4-1.6V0.5h-3.2c0.4,0.2,0.5,1,0.5,1.6V6.2z"/>
	<path class="st0" d="M51.3,2.4c0-0.6-0.2-1.1-1-1.1h-8.1v1.2h6c0,4.3-2.6,7.1-7,7.8l0.5,0.9C47.5,10.3,50.9,7.7,51.3,2.4"/>
	<path class="st0" d="M57.5,0.4H54c0.4,0.2,0.5,1,0.5,1.6v1.4h-3.1v1.2h3.1v1.7h-3.2v1.2h3.2v2.9c-0.7-0.4-1.6-0.5-2.5-0.5
		c-3,0-5.3,2-5.5,4.7c0,2.9,2.5,4.7,5.5,4.7s5.5-2,5.5-4.7v-0.1l0,0L57.5,0.4L57.5,0.4z M52.1,18c-1.6,0-2.6-1.4-2.6-3.5
		c0-2,1.1-3.5,2.6-3.5c1.6,0,2.6,1.4,2.7,3.5C54.7,16.6,53.7,18,52.1,18z"/>
	<path class="st0" d="M70.1,2.2c0-0.7-0.5-1.1-1.1-1.1h-7.1v1.2h5.2c0,3.7-2.6,6.1-6.5,7.6c4.2,0.6,7.3,2.7,9.6,5.8v-3.7
		c-1.7-1.4-3.7-2.1-5.6-2.5C67.5,8.4,70.1,4.8,70.1,2.2"/>
	<path class="st0" d="M104.1,0.4l4.8,14.5l4.6-14.4h2.5c0,0-5.5,16.5-5.7,17.1c-0.2,0.7-0.9,1.1-1.6,1.1c-0.6,0-1.7,0-1.7,0
		l-6.2-18.4C100.8,0.4,104.1,0.4,104.1,0.4z"/>
	<path class="st0" d="M99,0.4H83V2h6.5v16.6c0,0,1,0,1.7,0c0.9,0,1.5-0.5,1.5-1.2c0-0.7,0-15.3,0-15.3h6.5L99,0.4L99,0.4z"/>
	<path class="st0" d="M102,0.4h-1.9c0.5,0.2,0.9,0.9,1.1,1.5"/>
</g>
</svg>
