<svg width="50" height="50" viewBox="0 0 50 50" fill="none" xmlns="http://www.w3.org/2000/svg">
<g id="img">
<circle id="Ellipse 52" cx="25" cy="25" r="25" fill="#F2F6FF"/>
<g id="sync_saved_locally">
<mask id="mask0_311_65765" style="mask-type:alpha" maskUnits="userSpaceOnUse" x="10" y="10" width="30" height="30">
<rect id="Bounding box" x="10" y="10" width="30" height="30" fill="#D9D9D9"/>
</mask>
<g mask="url(#mask0_311_65765)">
<path id="sync_saved_locally_2" d="M11.25 38.4706V36.2982H38.75V38.4706H11.25ZM14.5834 34.5605C14.0209 34.5605 13.533 34.3451 13.1197 33.9143C12.7066 33.4833 12.5 32.9746 12.5 32.388V17.1822C12.5 16.5957 12.7066 16.0869 13.1197 15.6559C13.533 15.2251 14.0209 15.0098 14.5834 15.0098H35.4166C35.9791 15.0098 36.467 15.2251 36.8803 15.6559C37.2934 16.0869 37.5 16.5957 37.5 17.1822V32.388C37.5 32.9746 37.2934 33.4833 36.8803 33.9143C36.467 34.3451 35.9791 34.5605 35.4166 34.5605H14.5834ZM14.5834 32.388H35.4166V17.1822H14.5834V32.388Z" fill="#394FE9"/>
<path id="cloud_done" d="M23.8523 27.8248L27.7499 23.9089L26.9659 23.1211L23.858 26.2435L22.2443 24.6225L21.4545 25.4159L23.8523 27.8248ZM21.1477 29.8683C20.1364 29.8683 19.2756 29.5144 18.5653 28.8066C17.8551 28.0987 17.5 27.2368 17.5 26.2207C17.5 25.3302 17.7784 24.5444 18.3352 23.8632C18.892 23.1821 19.6061 22.7635 20.4773 22.6074C20.7235 21.5191 21.2689 20.6324 22.1137 19.9474C22.9584 19.2624 23.928 18.9199 25.0227 18.9199C26.3144 18.9199 27.4062 19.3851 28.2983 20.3156C29.1903 21.246 29.6364 22.3677 29.6364 23.6806V23.9546C30.4432 23.9698 31.1222 24.2599 31.6733 24.8251C32.2244 25.3902 32.5 26.0856 32.5 26.9114C32.5 27.7219 32.2112 28.4174 31.6336 28.9979C31.0559 29.5782 30.3636 29.8683 29.5568 29.8683H21.1477ZM21.1477 28.7266H29.5568C30.0568 28.7266 30.4829 28.5496 30.8352 28.1957C31.1874 27.8418 31.3636 27.4137 31.3636 26.9114C31.3636 26.409 31.1874 25.9809 30.8352 25.627C30.4829 25.2731 30.0568 25.0961 29.5568 25.0961H28.4999V23.6806C28.4999 22.6721 28.1581 21.8168 27.4745 21.1146C26.7907 20.4125 25.9584 20.0615 24.9773 20.0615C23.9962 20.0615 23.1619 20.4125 22.4744 21.1146C21.7869 21.8168 21.4431 22.6721 21.4431 23.6806H21.1136C20.4242 23.6806 19.839 23.9241 19.358 24.4112C18.8769 24.8983 18.6364 25.4958 18.6364 26.2036C18.6364 26.9038 18.8807 27.4993 19.3694 27.9902C19.858 28.4811 20.4508 28.7266 21.1477 28.7266Z" fill="#394FE9"/>
</g>
</g>
</g>
</svg>
