<svg width="50" height="50" viewBox="0 0 50 50" fill="none" xmlns="http://www.w3.org/2000/svg">
<g id="img">
<circle id="Ellipse 52" cx="25" cy="25" r="25" fill="#F2F6FF"/>
<g id="adb">
<mask id="mask0_311_65852" style="mask-type:alpha" maskUnits="userSpaceOnUse" x="10" y="10" width="30" height="30">
<rect id="Bounding box" x="10" y="10" width="30" height="30" fill="#D9D9D9"/>
</mask>
<g mask="url(#mask0_311_65852)">
<path id="adb_2" d="M17.25 23.2294V21.926C17.25 20.362 17.592 18.9374 18.2759 17.6523C18.9601 16.3669 19.8681 15.3115 21 14.486L18.6562 12.0422L19.7709 10.8691L22.4166 13.617C22.9561 13.3563 23.5321 13.1554 24.1444 13.0142C24.7565 12.873 25.375 12.8024 26 12.8024C26.625 12.8024 27.2448 12.873 27.8594 13.0142C28.474 13.1554 29.0521 13.3563 29.5938 13.617L32.2291 10.8691L33.3438 12.0422L31 14.486C32.1319 15.3115 33.0399 16.3686 33.7241 17.6575C34.408 18.9463 34.75 20.3705 34.75 21.9299V23.2294H17.25ZM29.75 20.6227C30.1042 20.6227 30.401 20.4977 30.6406 20.2479C30.8802 19.9981 31 19.6886 31 19.3193C31 18.95 30.8802 18.6404 30.6406 18.3906C30.401 18.1408 30.1042 18.0159 29.75 18.0159C29.3958 18.0159 29.099 18.1408 28.8594 18.3906C28.6198 18.6404 28.5 18.95 28.5 19.3193C28.5 19.6886 28.6198 19.9981 28.8594 20.2479C29.099 20.4977 29.3958 20.6227 29.75 20.6227ZM22.25 20.6227C22.6042 20.6227 22.901 20.4977 23.1406 20.2479C23.3802 19.9981 23.5 19.6886 23.5 19.3193C23.5 18.95 23.3802 18.6404 23.1406 18.3906C22.901 18.1408 22.6042 18.0159 22.25 18.0159C21.8958 18.0159 21.599 18.1408 21.3594 18.3906C21.1198 18.6404 21 18.95 21 19.3193C21 19.6886 21.1198 19.9981 21.3594 20.2479C21.599 20.4977 21.8958 20.6227 22.25 20.6227ZM26 38.8918C23.5625 38.8918 21.4948 38.0066 19.7969 36.2362C18.099 34.4657 17.25 32.3097 17.25 29.7681V24.5328H34.75V29.7681C34.75 32.3097 33.901 34.4657 32.2031 36.2362C30.5052 38.0066 28.4375 38.8918 26 38.8918Z" fill="#394FE9"/>
</g>
</g>
</g>
</svg>
