<svg width="50" height="50" viewBox="0 0 50 50" fill="none" xmlns="http://www.w3.org/2000/svg">
<g id="img">
<circle id="Ellipse 52" cx="25" cy="25" r="25" fill="#F2F6FF"/>
<g id="bluetooth_drive">
<mask id="mask0_311_65708" style="mask-type:alpha" maskUnits="userSpaceOnUse" x="10" y="10" width="30" height="30">
<rect id="Bounding box" x="10" y="10" width="30" height="30" fill="#D9D9D9"/>
</mask>
<g mask="url(#mask0_311_65708)">
<path id="bluetooth_drive_2" d="M17.8755 31.098C18.3733 31.098 18.7963 30.9207 19.1446 30.5659C19.4929 30.211 19.6671 29.7801 19.6671 29.2733C19.6671 28.7543 19.4935 28.3132 19.1462 27.95C18.7987 27.5868 18.3768 27.4052 17.8805 27.4052C17.3841 27.4052 16.9675 27.5863 16.6309 27.9484C16.294 28.3107 16.1255 28.7506 16.1255 29.2681C16.1255 29.7857 16.2957 30.2201 16.6359 30.5711C16.9763 30.9224 17.3895 31.098 17.8755 31.098ZM29.7715 31.098C30.2692 31.098 30.6922 30.9207 31.0406 30.5659C31.3889 30.211 31.563 29.7801 31.563 29.2733C31.563 28.7543 31.3893 28.3132 31.0418 27.95C30.6945 27.5868 30.2726 27.4052 29.7762 27.4052C29.2799 27.4052 28.8634 27.5863 28.5265 27.9484C28.1898 28.3107 28.0215 28.7506 28.0215 29.2681C28.0215 29.7857 28.1916 30.2201 28.5318 30.5711C28.872 30.9224 29.2852 31.098 29.7715 31.098ZM13.6255 37.4846C13.3303 37.4846 13.0829 37.3805 12.8834 37.1724C12.6838 36.9641 12.584 36.7061 12.584 36.3985V25.7542L15.1699 17.9339C15.293 17.5429 15.5166 17.2279 15.8405 16.9889C16.1645 16.75 16.525 16.6305 16.9221 16.6305H28.834V18.8029H17.063L15.4796 23.7121H28.834V25.8845H14.6671V32.6187H33.0005V25.8845H35.084V36.3985C35.084 36.7061 34.9841 36.9641 34.7843 37.1724C34.5847 37.3805 34.3373 37.4846 34.0421 37.4846H33.2296C32.9286 37.4846 32.6763 37.3805 32.4727 37.1724C32.269 36.9641 32.1671 36.7061 32.1671 36.3985V34.7908H15.5005V36.3985C15.5005 36.7061 15.4008 36.9641 15.2012 37.1724C15.0014 37.3805 14.754 37.4846 14.459 37.4846H13.6255ZM33.5005 24.4508V19.2373L30.5215 22.3436L29.7921 21.5834L33.2921 17.9339L29.7921 14.2844L30.5215 13.5242L33.5005 16.6305V11.417H33.8755L37.438 15.1968L34.7505 17.9339L37.438 20.7362L33.8755 24.4508H33.5005ZM34.6465 16.3698L35.834 15.1968L34.6465 13.9586V16.3698ZM34.6465 21.9744L35.834 20.7362L34.6465 19.4979V21.9744Z" fill="#394FE9"/>
</g>
</g>
</g>
</svg>
