<svg width="50" height="50" viewBox="0 0 50 50" fill="none" xmlns="http://www.w3.org/2000/svg">
<g id="img">
<g id="Group 74">
<circle id="Ellipse 52" cx="25" cy="25" r="25" fill="#F2F6FF"/>
<g id="precision_manufacturing">
<mask id="mask0_311_65750" style="mask-type:alpha" maskUnits="userSpaceOnUse" x="10" y="10" width="30" height="30">
<rect id="Bounding box" x="10" y="10" width="30" height="30" fill="#D9D9D9"/>
</mask>
<g mask="url(#mask0_311_65750)">
<path id="precision_manufacturing_2" d="M15.1147 38.4274V35.082H19.0522L15.7812 23.5907C15.1494 23.2649 14.6476 22.8123 14.2759 22.2329C13.9045 21.6536 13.7188 20.9403 13.7188 20.0931C13.7188 19.0504 14.0799 18.1526 14.8022 17.3997C15.5243 16.6466 16.3853 16.27 17.3853 16.27C18.2674 16.27 19.0157 16.5216 19.6303 17.025C20.2449 17.5281 20.6632 18.1888 20.8853 19.0071H25.2603V17.2909C25.2603 16.9941 25.3628 16.7389 25.5678 16.5251C25.7726 16.3116 26.0174 16.2048 26.3022 16.2048C26.5174 16.2048 26.7066 16.2808 26.8697 16.4329C27.033 16.585 27.1355 16.7696 27.1772 16.9868L29.4478 14.7278C29.6216 14.5466 29.8386 14.4289 30.0991 14.3745C30.3595 14.3202 30.6216 14.3583 30.8853 14.4886L35.8022 16.9217C36.0105 17.0375 36.1546 17.2022 36.2344 17.416C36.3142 17.6295 36.302 17.8485 36.1978 18.0729C36.0868 18.3047 35.9253 18.4477 35.7134 18.502C35.5018 18.5563 35.2952 18.5292 35.0938 18.4206L30.3647 16.0745L27.3438 19.1808V20.9188L30.3647 24.0903L35.0938 21.7223C35.309 21.6137 35.5207 21.592 35.7291 21.6572C35.9374 21.7223 36.0936 21.8672 36.1978 22.0919C36.3091 22.3234 36.323 22.5515 36.2397 22.7761C36.1564 23.0005 36.0035 23.1706 35.7812 23.2864L30.9688 25.6543C30.691 25.7992 30.4184 25.8589 30.1509 25.8335C29.8836 25.8081 29.6493 25.6905 29.4478 25.4806L27.1772 23.2212C27.1355 23.4676 27.033 23.6595 26.8697 23.797C26.7066 23.9345 26.5174 24.0033 26.3022 24.0033C26.0174 24.0033 25.7726 23.8965 25.5678 23.683C25.3628 23.4694 25.2603 23.2142 25.2603 22.9172V21.1795H20.8438C20.8229 21.4111 20.7552 21.6427 20.6406 21.8745C20.526 22.1063 20.3854 22.3091 20.2188 22.4829L26.5728 35.082H31.3647V38.4274H15.1147ZM17.3853 21.7442C17.8368 21.7442 18.2135 21.5867 18.5156 21.2717C18.8177 20.9567 18.9688 20.5639 18.9688 20.0931C18.9688 19.6226 18.8177 19.2298 18.5156 18.9149C18.2135 18.5999 17.8368 18.4424 17.3853 18.4424C16.9341 18.4424 16.5574 18.5999 16.2553 18.9149C15.9532 19.2298 15.8022 19.6226 15.8022 20.0931C15.8022 20.5639 15.9532 20.9567 16.2553 21.2717C16.5574 21.5867 16.9341 21.7442 17.3853 21.7442ZM21.2813 35.082H24.2188L18.4897 23.6341C18.448 23.663 18.3716 23.692 18.2603 23.7211C18.1493 23.75 18.0659 23.7717 18.0103 23.7862L21.2813 35.082Z" fill="#394FE9"/>
</g>
</g>
</g>
</g>
</svg>
