<svg width="50" height="50" viewBox="0 0 50 50" fill="none" xmlns="http://www.w3.org/2000/svg">
<g id="img">
<circle id="Ellipse 52" cx="25" cy="25" r="25" fill="#F2F6FF"/>
<g id="view_in_ar">
<mask id="mask0_311_65674" style="mask-type:alpha" maskUnits="userSpaceOnUse" x="10" y="10" width="30" height="30">
<rect id="Bounding box" x="10" y="10" width="30" height="30" fill="#D9D9D9"/>
</mask>
<g mask="url(#mask0_311_65674)">
<path id="view_in_ar_2" d="M23.9166 35.8003L17.25 31.7491C16.9267 31.5475 16.6757 31.2816 16.4972 30.9514C16.3184 30.6214 16.2291 30.2609 16.2291 29.8699V21.789C16.2291 21.398 16.3184 21.0375 16.4972 20.7075C16.6757 20.3775 16.9267 20.1117 17.25 19.9101L23.9375 15.8153C24.264 15.6197 24.6181 15.522 25 15.522C25.3819 15.522 25.736 15.6197 26.0625 15.8153L32.75 19.9101C33.0733 20.1117 33.3243 20.3775 33.5028 20.7075C33.6816 21.0375 33.7709 21.398 33.7709 21.789V29.8699C33.7709 30.2609 33.6798 30.6214 33.4975 30.9514C33.3152 31.2816 33.0591 31.5475 32.7291 31.7491L26 35.8003C25.669 35.9958 25.3206 36.0936 24.955 36.0936C24.5892 36.0936 24.243 35.9958 23.9166 35.8003ZM23.9584 33.3024V26.4378L18.3334 23.0598V29.8266L23.9584 33.3024ZM26.0416 33.3024L31.6875 29.8266V23.0598L26.0416 26.4378V33.3024ZM12.5 18.9978V14.8921C12.5 14.2948 12.704 13.7833 13.1119 13.3577C13.52 12.9324 14.0105 12.7197 14.5834 12.7197H18.5209V14.8921H14.5834V18.9978H12.5ZM18.5209 38.7873H14.5834C14.0105 38.7873 13.52 38.5746 13.1119 38.1493C12.704 37.7238 12.5 37.2123 12.5 36.6149V32.5093H14.5834V36.6149H18.5209V38.7873ZM31.4791 38.7873V36.6149H35.4166V32.5093H37.5V36.6149C37.5 37.2123 37.296 37.7238 36.8881 38.1493C36.48 38.5746 35.9895 38.7873 35.4166 38.7873H31.4791ZM35.4166 18.9978V14.8921H31.4791V12.7197H35.4166C35.9895 12.7197 36.48 12.9324 36.8881 13.3577C37.296 13.7833 37.5 14.2948 37.5 14.8921V18.9978H35.4166ZM25 24.5153L30.6041 21.1158L25 17.7596L19.3959 21.1158L25 24.5153Z" fill="#394FE9"/>
</g>
</g>
</g>
</svg>
