<svg width="50" height="50" viewBox="0 0 50 50" fill="none" xmlns="http://www.w3.org/2000/svg">
<g id="img">
<circle id="Ellipse 52" cx="25" cy="25" r="25" fill="#F2F6FF"/>
<g id="language">
<mask id="mask0_311_65807" style="mask-type:alpha" maskUnits="userSpaceOnUse" x="10" y="10" width="30" height="30">
<rect id="Bounding box" x="10" y="10" width="30" height="30" fill="#D9D9D9"/>
</mask>
<g mask="url(#mask0_311_65807)">
<path id="language_2" d="M25 37.5881C23.264 37.5881 21.6355 37.246 20.1147 36.5617C18.5939 35.8774 17.2692 34.9469 16.1406 33.7702C15.0121 32.5937 14.1232 31.2088 13.4741 29.6157C12.8247 28.0227 12.5 26.3211 12.5 24.511C12.5 22.6934 12.8247 20.9972 13.4741 19.4222C14.1232 17.8473 15.0121 16.4715 16.1406 15.2948C17.2692 14.1183 18.5939 13.195 20.1147 12.5251C21.6355 11.8554 23.264 11.5205 25 11.5205C26.7431 11.5205 28.3733 11.8554 29.8906 12.5251C31.4079 13.195 32.7308 14.1183 33.8594 15.2948C34.9879 16.4715 35.8768 17.8473 36.5259 19.4222C37.1753 20.9972 37.5 22.6934 37.5 24.511C37.5 26.3211 37.1753 28.0227 36.5259 29.6157C35.8768 31.2088 34.9879 32.5937 33.8594 33.7702C32.7308 34.9469 31.4079 35.8774 29.8906 36.5617C28.3733 37.246 26.7431 37.5881 25 37.5881ZM25 35.4375C25.6667 34.6555 26.2292 33.7866 26.6875 32.8308C27.1458 31.875 27.5208 30.7744 27.8125 29.529H22.2084C22.4861 30.7164 22.8542 31.7988 23.3125 32.7764C23.7708 33.7539 24.3333 34.6409 25 35.4375ZM22.1459 35.0032C21.6736 34.2138 21.2656 33.372 20.9219 32.4779C20.5781 31.5835 20.2917 30.6006 20.0625 29.529H15.7084C16.4376 30.9193 17.3004 32.0416 18.2969 32.8959C19.2933 33.7503 20.5764 34.4527 22.1459 35.0032ZM27.875 34.9813C29.264 34.518 30.5088 33.8193 31.6094 32.8852C32.71 31.9511 33.6041 30.8324 34.2916 29.529H29.9584C29.7153 30.586 29.4253 31.5617 29.0884 32.456C28.7518 33.3504 28.3473 34.1921 27.875 34.9813ZM14.9375 27.3566H19.6666C19.6041 26.8207 19.5642 26.3265 19.5469 25.874C19.5296 25.4215 19.5209 24.9671 19.5209 24.511C19.5209 23.9968 19.533 23.5279 19.5572 23.1043C19.5816 22.6807 19.625 22.2227 19.6875 21.7302H14.9375C14.8056 22.2227 14.7136 22.6771 14.6616 23.0935C14.6095 23.5098 14.5834 23.9822 14.5834 24.511C14.5834 25.0395 14.6095 25.5228 14.6616 25.961C14.7136 26.3989 14.8056 26.8641 14.9375 27.3566ZM21.7916 27.3566H28.2291C28.3055 26.7629 28.3559 26.2542 28.3803 25.8306C28.4045 25.407 28.4166 24.9671 28.4166 24.511C28.4166 24.0691 28.4045 23.6437 28.3803 23.2346C28.3559 22.8256 28.3055 22.3241 28.2291 21.7302H21.7916C21.7153 22.3241 21.665 22.8256 21.6406 23.2346C21.6163 23.6437 21.6041 24.0691 21.6041 24.511C21.6041 24.9671 21.6163 25.407 21.6406 25.8306C21.665 26.2542 21.7153 26.7629 21.7916 27.3566ZM30.3125 27.3566H35.0625C35.1944 26.8641 35.2864 26.3989 35.3384 25.961C35.3905 25.5228 35.4166 25.0395 35.4166 24.511C35.4166 23.9822 35.3905 23.5098 35.3384 23.0935C35.2864 22.6771 35.1944 22.2227 35.0625 21.7302H30.3334C30.3959 22.3819 30.4393 22.9124 30.4634 23.3216C30.4878 23.7307 30.5 24.1271 30.5 24.511C30.5 24.9815 30.4844 25.4285 30.4531 25.8521C30.4219 26.2757 30.375 26.7772 30.3125 27.3566ZM29.9375 19.5581H34.2916C33.632 18.1967 32.7518 17.049 31.6509 16.1149C30.5503 15.1808 29.2847 14.511 27.8541 14.1054C28.3264 14.8803 28.7309 15.7076 29.0678 16.5874C29.4045 17.4672 29.6944 18.4574 29.9375 19.5581ZM22.2084 19.5581H27.8334C27.5972 18.472 27.2326 17.4293 26.7397 16.43C26.2466 15.4308 25.6667 14.5256 25 13.7144C24.375 14.3661 23.8438 15.1518 23.4063 16.0716C22.9688 16.9911 22.5695 18.1533 22.2084 19.5581ZM15.7084 19.5581H20.0834C20.2986 18.5009 20.5711 17.5359 20.9009 16.6633C21.2309 15.7909 21.639 14.9456 22.125 14.1273C20.6944 14.5328 19.4392 15.1954 18.3594 16.1149C17.2796 17.0345 16.3959 18.1822 15.7084 19.5581Z" fill="#394FE9"/>
</g>
</g>
</g>
</svg>
