<svg width="50" height="50" viewBox="0 0 50 50" fill="none" xmlns="http://www.w3.org/2000/svg">
<g id="img">
<circle id="Ellipse 52" cx="25" cy="25" r="25" fill="#F2F6FF"/>
<g id="savings">
<mask id="mask0_311_65681" style="mask-type:alpha" maskUnits="userSpaceOnUse" x="10" y="10" width="30" height="30">
<rect id="Bounding box" x="10" y="10" width="30" height="30" fill="#D9D9D9"/>
</mask>
<g mask="url(#mask0_311_65681)">
<path id="savings_2" d="M30 24.4501C30.3542 24.4501 30.651 24.3252 30.8906 24.0754C31.1302 23.8256 31.25 23.5161 31.25 23.1468C31.25 22.7775 31.1302 22.4679 30.8906 22.2181C30.651 21.9683 30.3542 21.8434 30 21.8434C29.6458 21.8434 29.349 21.9683 29.1094 22.2181C28.8698 22.4679 28.75 22.7775 28.75 23.1468C28.75 23.5161 28.8698 23.8256 29.1094 24.0754C29.349 24.3252 29.6458 24.4501 30 24.4501ZM20 21.409H26.25V19.2366H20V21.409ZM15.625 37.4839C14.9167 35.0075 14.2188 32.5365 13.5313 30.071C12.8438 27.6054 12.5 25.0801 12.5 22.4951C12.5 20.4966 13.1667 18.8022 14.5 17.4119C15.8333 16.0216 17.4583 15.3265 19.375 15.3265H25.625C26.2292 14.501 26.9635 13.8602 27.8281 13.404C28.6927 12.9478 29.625 12.7197 30.625 12.7197C31.1458 12.7197 31.5885 12.9098 31.9531 13.29C32.3177 13.6701 32.5 14.1317 32.5 14.6748C32.5 14.8051 32.4844 14.9355 32.4531 15.0658C32.4219 15.1961 32.3854 15.3156 32.3438 15.4242C32.2604 15.6632 32.1823 15.9076 32.1094 16.1574C32.0365 16.4072 31.9792 16.6624 31.9375 16.9231L34.7813 19.8883H37.5V28.9794L33.9688 30.185L31.875 37.4839H25V34.8772H22.5V37.4839H15.625ZM17.1875 35.3115H20.4166V32.7048H27.0834V35.3115H30.3125L32.2709 28.5125L35.4166 27.3935V22.0607H33.9166L29.7916 17.7596C29.8055 17.2526 29.8594 16.7619 29.9531 16.2877C30.0469 15.8135 30.1528 15.3338 30.2709 14.8485C29.5418 15.0514 28.8647 15.3646 28.2397 15.7882C27.6147 16.2118 27.1424 16.782 26.8228 17.4989H19.375C18.0517 17.4989 16.9222 17.9866 15.9866 18.9619C15.0511 19.9375 14.5834 21.1152 14.5834 22.4951C14.5834 24.6987 14.8785 26.8516 15.4688 28.954C16.059 31.0563 16.6319 33.1755 17.1875 35.3115Z" fill="#394FE9"/>
</g>
</g>
</g>
</svg>
