<svg width="50" height="50" viewBox="0 0 50 50" fill="none" xmlns="http://www.w3.org/2000/svg">
<g id="img">
<circle id="Ellipse 52" cx="25" cy="25" r="25" fill="#F2F6FF"/>
<g id="lock">
<mask id="mask0_311_65783" style="mask-type:alpha" maskUnits="userSpaceOnUse" x="10" y="10" width="30" height="30">
<rect id="Bounding box" x="10" y="10" width="30" height="30" fill="#D9D9D9"/>
</mask>
<g mask="url(#mask0_311_65783)">
<path id="lock_2" d="M17.0834 39.7743C16.5105 39.7743 16.02 39.5616 15.6119 39.1363C15.204 38.7107 15 38.1993 15 37.6019V23.8297C15 23.2323 15.204 22.7209 15.6119 22.2953C16.02 21.87 16.5105 21.6573 17.0834 21.6573H18.9584V18.7029C18.9584 16.96 19.5477 15.4744 20.7262 14.246C21.9048 13.0175 23.3301 12.4033 25.0022 12.4033C26.6743 12.4033 28.0989 13.0175 29.2759 14.246C30.453 15.4744 31.0416 16.96 31.0416 18.7029V21.6573H32.9166C33.4895 21.6573 33.98 21.87 34.3881 22.2953C34.796 22.7209 35 23.2323 35 23.8297V37.6019C35 38.1993 34.796 38.7107 34.3881 39.1363C33.98 39.5616 33.4895 39.7743 32.9166 39.7743H17.0834ZM17.0834 37.6019H32.9166V23.8297H17.0834V37.6019ZM25.0034 33.2574C25.6747 33.2574 26.2482 33.0128 26.7241 32.5236C27.1997 32.0344 27.4375 31.4462 27.4375 30.7591C27.4375 30.0857 27.1984 29.4866 26.7203 28.9618C26.2424 28.4367 25.6678 28.1742 24.9966 28.1742C24.3253 28.1742 23.7518 28.4367 23.2759 28.9618C22.8003 29.4866 22.5625 30.0894 22.5625 30.7702C22.5625 31.4508 22.8016 32.0355 23.2797 32.5242C23.7576 33.013 24.3322 33.2574 25.0034 33.2574ZM21.0416 21.6573H28.9584V18.7029C28.9584 17.5566 28.5739 16.5821 27.8047 15.7794C27.0353 14.977 26.1012 14.5757 25.0025 14.5757C23.9035 14.5757 22.9686 14.977 22.1978 15.7794C21.427 16.5821 21.0416 17.5566 21.0416 18.7029V21.6573Z" fill="#394FE9"/>
</g>
</g>
</g>
</svg>
