<svg width="50" height="50" viewBox="0 0 50 50" fill="none" xmlns="http://www.w3.org/2000/svg">
<g id="img">
<circle id="Ellipse 52" cx="25" cy="25" r="25" fill="#F2F6FF"/>
<g id="cloud_done">
<mask id="mask0_311_65791" style="mask-type:alpha" maskUnits="userSpaceOnUse" x="10" y="10" width="30" height="30">
<rect id="Bounding box" x="10" y="10" width="30" height="30" fill="#D9D9D9"/>
</mask>
<g mask="url(#mask0_311_65791)">
<path id="cloud_done_2" d="M22.8959 31.0933L30.0416 23.6423L28.6041 22.1434L22.9062 28.0845L19.9478 25.0001L18.5 26.5097L22.8959 31.0933ZM17.9375 34.9817C16.0833 34.9817 14.5052 34.3082 13.2031 32.9614C11.901 31.6146 11.25 29.9745 11.25 28.0412C11.25 26.3468 11.7604 24.8515 12.7812 23.5553C13.8021 22.2593 15.1111 21.4628 16.7084 21.1658C17.1597 19.095 18.1597 17.4079 19.7084 16.1045C21.257 14.8011 23.0347 14.1494 25.0416 14.1494C27.4097 14.1494 29.4115 15.0346 31.0469 16.805C32.6823 18.5755 33.5 20.7098 33.5 23.2079V23.7293C34.9792 23.7581 36.224 24.3102 37.2344 25.3855C38.2448 26.4608 38.75 27.7841 38.75 29.3553C38.75 30.8976 38.2205 32.221 37.1616 33.3254C36.1024 34.4296 34.8332 34.9817 33.3541 34.9817H17.9375ZM17.9375 32.8092H33.3541C34.2707 32.8092 35.052 32.4725 35.6978 31.7991C36.3436 31.1257 36.6666 30.3111 36.6666 29.3553C36.6666 28.3995 36.3436 27.5849 35.6978 26.9115C35.052 26.238 34.2707 25.9013 33.3541 25.9013H31.4166V23.2079C31.4166 21.2889 30.7899 19.6614 29.5366 18.3254C28.283 16.9895 26.757 16.3215 24.9584 16.3215C23.1597 16.3215 21.6301 16.9895 20.3697 18.3254C19.1093 19.6614 18.4791 21.2889 18.4791 23.2079H17.875C16.611 23.2079 15.5381 23.6713 14.6563 24.598C13.7744 25.5249 13.3334 26.6617 13.3334 28.0086C13.3334 29.3408 13.7814 30.474 14.6772 31.4081C15.573 32.3422 16.6598 32.8092 17.9375 32.8092Z" fill="#394FE9"/>
</g>
</g>
</g>
</svg>
