<svg width="50" height="50" viewBox="0 0 50 50" fill="none" xmlns="http://www.w3.org/2000/svg">
<g id="ico">
<circle id="Ellipse 51" cx="25" cy="25" r="25" fill="#F2F6FF"/>
<g id="credit_score">
<mask id="mask0_311_70761" style="mask-type:alpha" maskUnits="userSpaceOnUse" x="10" y="10" width="30" height="30">
<rect id="Bounding box" x="10.7148" y="10.7147" width="28.5714" height="28.5714" fill="#D9D9D9"/>
</mask>
<g mask="url(#mask0_311_70761)">
<path id="forum" d="M19.07 32.1433C18.7724 32.1433 18.4962 32.0127 18.2414 31.7514C17.9868 31.4902 17.8596 31.2109 17.8596 30.9133V28.1752H32.939V17.8576H35.7167C36.0143 17.8576 36.2871 17.9883 36.5352 18.2496C36.7832 18.5107 36.9072 18.7967 36.9072 19.1076V36.8853L32.1652 32.1433H19.07ZM13.0977 30.9528V14.3258C13.0977 14.0281 13.2217 13.7488 13.4697 13.4877C13.7177 13.2264 13.9905 13.0957 14.2881 13.0957H29.7444C30.0553 13.0957 30.3348 13.223 30.5828 13.4775C30.8308 13.7323 30.9548 14.015 30.9548 14.3258V24.9609C30.9548 25.2585 30.8308 25.5379 30.5828 25.799C30.3348 26.0603 30.0553 26.1909 29.7444 26.1909H17.8596L13.0977 30.9528Z" fill="#394FE9"/>
</g>
</g>
</g>
</svg>
