<svg width="50" height="50" viewBox="0 0 50 50" fill="none" xmlns="http://www.w3.org/2000/svg">
<g id="ico">
<circle id="Ellipse 51" cx="25" cy="25" r="25" fill="#F2F6FF"/>
<g id="credit_score">
<mask id="mask0_311_70772" style="mask-type:alpha" maskUnits="userSpaceOnUse" x="10" y="10" width="30" height="30">
<rect id="Bounding box" x="10.7148" y="10.7146" width="28.5714" height="28.5714" fill="#D9D9D9"/>
</mask>
<g mask="url(#mask0_311_70772)">
<path id="group" d="M11.8672 34.5241V31.5479C11.8672 30.86 12.0441 30.2333 12.3978 29.6678C12.7516 29.1023 13.236 28.6774 13.8511 28.3931C15.2269 27.7647 16.5133 27.3067 17.7103 27.019C18.9074 26.7313 20.1343 26.5874 21.391 26.5874C22.6475 26.5874 23.8711 26.7313 25.0615 27.019C26.252 27.3067 27.535 27.7647 28.9106 28.3931C29.5257 28.6774 30.0135 29.1023 30.374 29.6678C30.7346 30.2333 30.9148 30.86 30.9148 31.5479V34.5241H11.8672ZM32.8987 34.5241V31.4684C32.8987 30.3442 32.6061 29.3803 32.0208 28.5767C31.4354 27.7732 30.6501 27.1101 29.6648 26.5874C30.9148 26.7331 32.092 26.9563 33.1964 27.2571C34.3009 27.5581 35.2335 27.9103 35.994 28.3136C36.6686 28.6974 37.1944 29.1554 37.5714 29.6877C37.9483 30.2201 38.1368 30.8136 38.1368 31.4684V34.5241H32.8987ZM21.391 24.9803C20.0815 24.9803 18.9935 24.5472 18.127 23.6809C17.2605 22.8144 16.8273 21.7264 16.8273 20.4169C16.8273 19.1074 17.2605 18.0194 18.127 17.1529C18.9935 16.2867 20.0815 15.8535 21.391 15.8535C22.7005 15.8535 23.7884 16.2867 24.6547 17.1529C25.5212 18.0194 25.9544 19.1074 25.9544 20.4169C25.9544 21.7264 25.5212 22.8144 24.6547 23.6809C23.7884 24.5472 22.7005 24.9803 21.391 24.9803ZM32.502 20.4169C32.502 21.7264 32.0688 22.8144 31.2023 23.6809C30.336 24.5472 29.2481 24.9803 27.9386 24.9803C27.7204 24.9803 27.4657 24.9621 27.1746 24.9258C26.8836 24.8895 26.6289 24.835 26.4106 24.7621C26.9067 24.2199 27.2853 23.5783 27.5467 22.8374C27.808 22.0968 27.9386 21.2899 27.9386 20.4169C27.9386 19.5439 27.808 18.7502 27.5467 18.036C27.2853 17.3217 26.9067 16.6669 26.4106 16.0717C26.6487 15.9989 26.9034 15.9443 27.1746 15.908C27.4459 15.8717 27.7005 15.8535 27.9386 15.8535C29.2481 15.8535 30.336 16.2867 31.2023 17.1529C32.0688 18.0194 32.502 19.1074 32.502 20.4169Z" fill="#394FE9"/>
</g>
</g>
</g>
</svg>
