<svg width="57" height="56" viewBox="0 0 57 56" fill="none" xmlns="http://www.w3.org/2000/svg">
<g id="Group 11">
<circle id="Ellipse 11" cx="28.5" cy="28" r="28" fill="#EFF6FF"/>
<g id="credit_card_heart">
<mask id="mask0_261_137" style="mask-type:alpha" maskUnits="userSpaceOnUse" x="8" y="8" width="41" height="40">
<rect id="Bounding box" x="8.5" y="8" width="40" height="40" fill="#D9D9D9"/>
</mask>
<g mask="url(#mask0_261_137)">
<path id="credit_card_heart_2" d="M14.7609 38.4058V25.3292V26.14V17.5942V38.4058ZM38.0288 42.06L32.6442 36.6754C32.3045 36.3354 32.0663 35.9758 31.9297 35.5967C31.793 35.2175 31.7247 34.8356 31.7247 34.4508C31.7247 33.6261 32.0173 32.8932 32.6026 32.2521C33.1881 31.6112 33.9436 31.2908 34.8688 31.2908C35.593 31.2908 36.1613 31.4579 36.5738 31.7921C36.9861 32.1265 37.4711 32.5726 38.0288 33.1304C38.5524 32.6068 39.0247 32.1693 39.4455 31.8179C39.8666 31.4665 40.4479 31.2908 41.1892 31.2908C42.142 31.2908 42.9042 31.6156 43.4759 32.265C44.0476 32.9144 44.3334 33.6517 44.3334 34.4767C44.3334 34.8611 44.2581 35.2457 44.1076 35.6304C43.9567 36.0149 43.7254 36.3632 43.4134 36.6754L38.0288 42.06ZM14.7609 22.1925H42.2392V18.1067C42.2392 17.9786 42.1859 17.8611 42.0793 17.7542C41.9723 17.6475 41.8548 17.5942 41.7267 17.5942H15.2734C15.1454 17.5942 15.0279 17.6475 14.9209 17.7542C14.8142 17.8611 14.7609 17.9786 14.7609 18.1067V22.1925ZM27.3492 40.5H15.2734C14.5573 40.5 13.9438 40.2446 13.433 39.7337C12.9222 39.2229 12.6667 38.6094 12.6667 37.8933V18.1067C12.6667 17.3906 12.9222 16.7771 13.433 16.2663C13.9438 15.7554 14.5573 15.5 15.2734 15.5H41.7267C42.4429 15.5 43.0563 15.7554 43.5672 16.2663C44.078 16.7771 44.3334 17.3906 44.3334 18.1067V27.2488C43.4254 26.6399 42.4404 26.1676 41.3784 25.8321C40.3165 25.4968 39.1999 25.3292 38.0288 25.3292C37.0147 25.3292 36.033 25.4643 35.0838 25.7346C34.1349 26.0049 33.2545 26.3853 32.4426 26.8758H14.7609V37.8933C14.7609 38.0214 14.8142 38.1389 14.9209 38.2458C15.0279 38.3525 15.1454 38.4058 15.2734 38.4058H26.8255C26.8786 38.7761 26.9486 39.1356 27.0355 39.4842C27.1222 39.8331 27.2267 40.1717 27.3492 40.5Z" fill="#1D7EFF"/>
</g>
</g>
</g>
</svg>
