<svg width="57" height="56" viewBox="0 0 57 56" fill="none" xmlns="http://www.w3.org/2000/svg">
<g id="Group 11">
<circle id="Ellipse 11" cx="28.5" cy="28" r="28" fill="#EFF6FF"/>
<g id="emoji_events">
<mask id="mask0_261_131" style="mask-type:alpha" maskUnits="userSpaceOnUse" x="8" y="8" width="41" height="40">
<rect id="Bounding box" x="8.5" y="8" width="40" height="40" fill="#D9D9D9"/>
</mask>
<g mask="url(#mask0_261_131)">
<path id="emoji_events_2" d="M21.6816 42.1668V40.0727H27.4528V33.876C25.9742 33.5918 24.6687 32.9629 23.5362 31.9893C22.4037 31.0157 21.6202 29.8056 21.1858 28.3589C19.2741 28.1417 17.6541 27.3622 16.3258 26.0206C14.9974 24.6786 14.3333 23.0636 14.3333 21.1756V19.4189C14.3333 18.8497 14.5383 18.3585 14.9483 17.9452C15.358 17.5318 15.851 17.3252 16.4274 17.3252H20.7908V13.8335H36.2091V17.3252H40.5724C41.1488 17.3252 41.6419 17.5318 42.0516 17.9452C42.4616 18.3585 42.6666 18.8497 42.6666 19.4189V21.1756C42.6666 23.0636 42.0024 24.6786 40.6741 26.0206C39.3458 27.3622 37.7258 28.1417 35.8141 28.3589C35.3796 29.8056 34.5962 31.0157 33.4637 31.9893C32.3312 32.9629 31.0256 33.5918 29.547 33.876V40.0727H35.3183V42.1668H21.6816ZM20.7908 26.141V19.4189H16.4274V21.1756C16.4274 22.4247 16.8434 23.5096 17.6753 24.4302C18.507 25.3507 19.5455 25.921 20.7908 26.141ZM28.4999 31.8568C30.0577 31.8568 31.3777 31.3129 32.4599 30.2252C33.5421 29.1371 34.0833 27.8142 34.0833 26.2564V15.9277H22.9166V26.2564C22.9166 27.8142 23.4577 29.1371 24.5399 30.2252C25.6221 31.3129 26.9421 31.8568 28.4999 31.8568ZM36.2091 26.141C37.4544 25.921 38.4928 25.3507 39.3245 24.4302C40.1564 23.5096 40.5724 22.4247 40.5724 21.1756V19.4189H36.2091V26.141Z" fill="#1D7EFF"/>
</g>
</g>
</g>
</svg>
