<svg width="56" height="56" viewBox="0 0 56 56" fill="none" xmlns="http://www.w3.org/2000/svg">
<g id="Group 11">
<circle id="Ellipse 11" cx="28" cy="28" r="28" fill="#EFF6FF"/>
<g id="account_circle">
<mask id="mask0_261_110" style="mask-type:alpha" maskUnits="userSpaceOnUse" x="8" y="8" width="40" height="40">
<rect id="Bounding box" x="8" y="8" width="40" height="40" fill="#D9D9D9"/>
</mask>
<g mask="url(#mask0_261_110)">
<path id="account_circle_2" d="M18.0382 36.8207C19.4548 35.7696 20.9982 34.9395 22.6682 34.3303C24.3379 33.7214 26.1151 33.417 27.9998 33.417C29.8846 33.417 31.6618 33.7214 33.3315 34.3303C35.0015 34.9395 36.5448 35.7696 37.9615 36.8207C38.9976 35.6819 39.8186 34.3635 40.4244 32.8657C41.0303 31.368 41.3332 29.7462 41.3332 28.0003C41.3332 24.3059 40.0346 21.16 37.4373 18.5628C34.8401 15.9656 31.6943 14.667 27.9998 14.667C24.3054 14.667 21.1596 15.9656 18.5623 18.5628C15.9651 21.16 14.6665 24.3059 14.6665 28.0003C14.6665 29.7462 14.9694 31.368 15.5753 32.8657C16.1811 34.3635 17.0021 35.6819 18.0382 36.8207ZM28.0003 29.2503C26.4786 29.2503 25.1954 28.7281 24.1507 27.6837C23.1057 26.6389 22.5832 25.3557 22.5832 23.8341C22.5832 22.3124 23.1054 21.0292 24.1498 19.9845C25.1946 18.9395 26.4778 18.417 27.9994 18.417C29.5211 18.417 30.8043 18.9392 31.849 19.9837C32.894 21.0284 33.4165 22.3116 33.4165 23.8332C33.4165 25.3549 32.8943 26.6381 31.8498 27.6828C30.8051 28.7278 29.5219 29.2503 28.0003 29.2503ZM27.9998 43.8337C25.8012 43.8337 23.7387 43.4202 21.8123 42.5932C19.8859 41.7663 18.2103 40.6402 16.7853 39.2149C15.36 37.7899 14.2339 36.1142 13.4069 34.1878C12.58 32.2614 12.1665 30.1989 12.1665 28.0003C12.1665 25.8017 12.58 23.7392 13.4069 21.8128C14.2339 19.8864 15.36 18.2107 16.7853 16.7857C18.2103 15.3605 19.8859 14.2344 21.8123 13.4074C23.7387 12.5805 25.8012 12.167 27.9998 12.167C30.1984 12.167 32.2609 12.5805 34.1873 13.4074C36.1137 14.2344 37.7894 15.3605 39.2144 16.7857C40.6397 18.2107 41.7658 19.8864 42.5928 21.8128C43.4197 23.7392 43.8332 25.8017 43.8332 28.0003C43.8332 30.1989 43.4197 32.2614 42.5928 34.1878C41.7658 36.1142 40.6397 37.7899 39.2144 39.2149C37.7894 40.6402 36.1137 41.7663 34.1873 42.5932C32.2609 43.4202 30.1984 43.8337 27.9998 43.8337ZM27.9998 41.3337C29.504 41.3337 30.9543 41.0917 32.3507 40.6078C33.7471 40.1237 34.9869 39.4469 36.0703 38.5774C34.9869 37.7396 33.7632 37.0869 32.399 36.6191C31.0346 36.151 29.5682 35.917 27.9998 35.917C26.4315 35.917 24.9625 36.1482 23.5928 36.6107C22.223 37.0735 21.0019 37.7291 19.9294 38.5774C21.0128 39.4469 22.2526 40.1237 23.649 40.6078C25.0454 41.0917 26.4957 41.3337 27.9998 41.3337ZM27.9998 26.7503C28.829 26.7503 29.5223 26.4714 30.0798 25.9137C30.6376 25.3562 30.9165 24.6628 30.9165 23.8337C30.9165 23.0045 30.6376 22.3112 30.0798 21.7537C29.5223 21.1959 28.829 20.917 27.9998 20.917C27.1707 20.917 26.4773 21.1959 25.9198 21.7537C25.3621 22.3112 25.0832 23.0045 25.0832 23.8337C25.0832 24.6628 25.3621 25.3562 25.9198 25.9137C26.4773 26.4714 27.1707 26.7503 27.9998 26.7503Z" fill="#1C7DFF"/>
</g>
</g>
</g>
</svg>
