<svg width="56" height="56" viewBox="0 0 56 56" fill="none" xmlns="http://www.w3.org/2000/svg">
<g id="Group 11">
<circle id="Ellipse 11" cx="28" cy="28" r="28" fill="#EFF6FF"/>
<g id="savings">
<mask id="mask0_261_153" style="mask-type:alpha" maskUnits="userSpaceOnUse" x="8" y="8" width="40" height="40">
<rect id="Bounding box" x="8" y="8" width="40" height="40" fill="#D9D9D9"/>
</mask>
<g mask="url(#mask0_261_153)">
<path id="savings_2" d="M34.6667 26.1407C35.0748 26.1407 35.4226 25.9971 35.7101 25.7098C35.9973 25.4223 36.1409 25.0746 36.1409 24.6665C36.1409 24.2584 35.9973 23.9107 35.7101 23.6232C35.4226 23.3359 35.0748 23.1923 34.6667 23.1923C34.2587 23.1923 33.9109 23.3359 33.6234 23.6232C33.3362 23.9107 33.1926 24.2584 33.1926 24.6665C33.1926 25.0746 33.3362 25.4223 33.6234 25.7098C33.9109 25.9971 34.2587 26.1407 34.6667 26.1407ZM21.3334 22.1773H29.6667V20.0832H21.3334V22.1773ZM16.1251 42.1665C15.2448 39.1279 14.3651 36.1044 13.4859 33.0961C12.6065 30.0875 12.1667 26.9998 12.1667 23.8332C12.1667 21.5126 12.9755 19.5436 14.593 17.9261C16.2105 16.3086 18.1795 15.4998 20.5001 15.4998H29.2501C30.0129 14.4976 30.928 13.6915 31.9955 13.0815C33.0627 12.4715 34.2309 12.1665 35.5001 12.1665C35.9595 12.1665 36.3522 12.3294 36.678 12.6553C37.0038 12.9811 37.1667 13.3737 37.1667 13.8332C37.1667 13.9465 37.1512 14.0597 37.1201 14.1728C37.0892 14.2861 37.0567 14.3908 37.0226 14.4869C36.8687 14.8886 36.7377 15.3 36.6297 15.7211C36.5219 16.1419 36.4295 16.5671 36.3526 16.9965L40.6892 21.3332H43.8334V31.5157L39.2851 33.0094L36.5417 42.1665H28.8334V38.8332H23.8334V42.1665H16.1251ZM17.7009 40.0723H21.7392V36.739H30.9276V40.0723H34.9767L37.5772 31.4103L41.7392 29.9903V23.4273H39.8247L34.2392 17.8419C34.2506 17.215 34.3117 16.6108 34.4226 16.0294C34.5334 15.4478 34.6747 14.8664 34.8463 14.2853C33.9238 14.5303 33.0798 14.9289 32.3142 15.4811C31.5484 16.0336 30.9526 16.7379 30.5267 17.594H20.5001C18.7712 17.594 17.2991 18.2016 16.0838 19.4169C14.8686 20.6322 14.2609 22.1043 14.2609 23.8332C14.2609 26.6265 14.6491 29.3557 15.4255 32.0207C16.2016 34.6857 16.9601 37.3696 17.7009 40.0723Z" fill="#1D7EFF"/>
</g>
</g>
</g>
</svg>
