<svg width="57" height="56" viewBox="0 0 57 56" fill="none" xmlns="http://www.w3.org/2000/svg">
<g id="Group 11">
<circle id="Ellipse 11" cx="28.5" cy="28" r="28" fill="#EFF6FF"/>
<g id="frame_person_mic">
<mask id="mask0_261_148" style="mask-type:alpha" maskUnits="userSpaceOnUse" x="9" y="8" width="40" height="40">
<rect id="Bounding box" x="9" y="8" width="40" height="40" fill="#D9D9D9"/>
</mask>
<g mask="url(#mask0_261_148)">
<path id="frame_person_mic_2" d="M17.6538 37.2628V34.5128C17.6538 33.915 17.8309 33.3761 18.1851 32.8961C18.539 32.4161 18.9859 32.0262 19.5259 31.7265C21.0356 30.9009 22.6197 30.3379 24.278 30.0373C25.9361 29.7368 27.6162 29.6908 29.3184 29.8994C29.2656 30.0983 29.2279 30.3016 29.2051 30.5094C29.1823 30.7175 29.1709 30.9208 29.1709 31.1194C29.1709 31.2686 29.1766 31.4187 29.188 31.5698C29.1994 31.7209 29.2126 31.8679 29.2276 32.0107C27.6151 31.7626 25.9845 31.8198 24.3359 32.1823C22.6876 32.5448 21.1683 33.1493 19.778 33.9957V35.1848H30.3251C30.5665 35.5979 30.8413 35.979 31.1497 36.3282C31.458 36.6776 31.8027 36.9891 32.1838 37.2628H17.6538ZM27.2355 27.9036C25.9483 27.9036 24.8629 27.4618 23.9792 26.5782C23.0956 25.6948 22.6538 24.6096 22.6538 23.3223C22.6538 22.0604 23.0956 20.9807 23.9792 20.0832C24.8629 19.1857 25.9483 18.7369 27.2355 18.7369C28.4974 18.7369 29.577 19.1857 30.4742 20.0832C31.3717 20.9807 31.8205 22.0604 31.8205 23.3223C31.8205 24.6096 31.3717 25.6948 30.4742 26.5782C29.577 27.4618 28.4974 27.9036 27.2355 27.9036ZM27.2276 25.8098C27.9256 25.8098 28.5166 25.5703 29.0005 25.0911C29.4847 24.6122 29.7267 24.0253 29.7267 23.3303C29.7267 22.6322 29.4861 22.0411 29.0047 21.5569C28.5236 21.073 27.9286 20.8311 27.2197 20.8311C26.5249 20.8311 25.9392 21.0716 25.4626 21.5528C24.9862 22.0341 24.748 22.6293 24.748 23.3382C24.748 24.0329 24.9874 24.6185 25.4663 25.0948C25.9455 25.5715 26.5326 25.8098 27.2276 25.8098ZM15.7788 43.8332C15.0591 43.8332 14.4438 43.5778 13.933 43.0669C13.4222 42.5561 13.1667 41.9408 13.1667 41.2211V34.8244H15.2609V41.2265C15.2609 41.3546 15.3142 41.4721 15.4209 41.579C15.5279 41.6857 15.6454 41.739 15.7734 41.739H22.1755V43.8332H15.7788ZM13.1667 21.1753V14.7786C13.1667 14.0589 13.4222 13.4436 13.933 12.9328C14.4438 12.4219 15.0591 12.1665 15.7788 12.1665H22.1755V14.2607H15.7734C15.6454 14.2607 15.5279 14.314 15.4209 14.4207C15.3142 14.5276 15.2609 14.6451 15.2609 14.7732V21.1753H13.1667ZM35.8247 43.8332V41.739H42.2267C42.3548 41.739 42.4723 41.6857 42.5793 41.579C42.6859 41.4721 42.7392 41.3546 42.7392 41.2265V34.8244H44.8334V41.2211C44.8334 41.9408 44.578 42.5561 44.0672 43.0669C43.5563 43.5778 42.9411 43.8332 42.2213 43.8332H35.8247ZM42.7392 21.1753V14.7732C42.7392 14.6451 42.6859 14.5276 42.5793 14.4207C42.4723 14.314 42.3548 14.2607 42.2267 14.2607H35.8247V12.1665H42.2213C42.9411 12.1665 43.5563 12.4219 44.0672 12.9328C44.578 13.4436 44.8334 14.0589 44.8334 14.7786V21.1753H42.7392ZM36.2651 37.2628V34.8923C35.1667 34.6884 34.2538 34.1751 33.5263 33.3523C32.7988 32.5298 32.4297 31.5469 32.4188 30.4036H33.8934C33.904 31.2561 34.2123 31.9821 34.8184 32.5815C35.4245 33.181 36.1531 33.4807 37.0042 33.4807C37.8554 33.4807 38.5833 33.181 39.188 32.5815C39.7927 31.9821 40.1005 31.2561 40.1113 30.4036H41.5855C41.5749 31.5469 41.2058 32.5294 40.478 33.3511C39.7502 34.173 38.8373 34.6853 37.7392 34.8878V37.2628H36.2651ZM37.0017 32.0061C36.472 32.0061 36.0245 31.8233 35.6592 31.4578C35.294 31.0922 35.1113 30.6447 35.1113 30.1153V27.0382C35.1113 26.5087 35.2941 26.0612 35.6597 25.6957C36.0255 25.3301 36.4731 25.1473 37.0026 25.1473C37.5323 25.1473 37.9798 25.3301 38.3451 25.6957C38.7106 26.0612 38.8934 26.5087 38.8934 27.0382V30.1153C38.8934 30.6447 38.7105 31.0922 38.3447 31.4578C37.9791 31.8233 37.5315 32.0061 37.0017 32.0061Z" fill="#1D7EFF"/>
</g>
</g>
</g>
</svg>
