<svg width="57" height="56" viewBox="0 0 57 56" fill="none" xmlns="http://www.w3.org/2000/svg">
<g id="Group 11">
<circle id="Ellipse 11" cx="28.5" cy="28" r="28" fill="#EFF6FF"/>
<g id="contract_edit">
<mask id="mask0_261_126" style="mask-type:alpha" maskUnits="userSpaceOnUse" x="8" y="8" width="41" height="40">
<rect id="Bounding box" x="8.5" y="8" width="40" height="40" fill="#D9D9D9"/>
</mask>
<g mask="url(#mask0_261_126)">
<path id="contract_edit_2" d="M23.8203 21.6748V19.5811H38.1795V21.6748H23.8203ZM23.8203 26.4828V24.3886H38.1795V26.4828H23.8203ZM28.7778 43.8332H18.2008C17.1235 43.8332 16.2096 43.4579 15.4591 42.7073C14.7085 41.9568 14.3333 41.0429 14.3333 39.9657V34.859H19.3333V12.1665H42.6666V26.6686C42.3069 26.6453 41.9517 26.6604 41.6012 26.714C41.2506 26.7679 40.9077 26.8575 40.5724 26.9828V14.2607H21.4274V34.859H31.942L29.8483 36.9528H16.4274V39.9657C16.4274 40.4682 16.598 40.8894 16.9391 41.2294C17.2799 41.5691 17.6912 41.739 18.1728 41.739H28.7778V43.8332ZM32.0258 43.8332V39.4294L41.0737 30.4228C41.2809 30.2155 41.5052 30.0697 41.7466 29.9853C41.988 29.9011 42.2295 29.859 42.4712 29.859C42.7295 29.859 42.9821 29.908 43.2291 30.0061C43.4758 30.1044 43.6974 30.2519 43.8941 30.4486L45.4358 32.0061C45.6266 32.2136 45.7684 32.438 45.8612 32.6794C45.9537 32.9208 45.9999 33.1622 45.9999 33.4036C45.9999 33.645 45.9503 33.8907 45.8512 34.1407C45.7523 34.3907 45.6089 34.6193 45.4212 34.8265L36.4295 43.8332H32.0258ZM34.0128 41.8461H35.5962L41.0062 36.4098L40.2403 35.6182L39.4645 34.8365L34.0128 40.2628V41.8461ZM40.2403 35.6182L39.4645 34.8365L41.0062 36.4098L40.2403 35.6182Z" fill="#1D7EFF"/>
</g>
</g>
</g>
</svg>
