<svg width="57" height="56" viewBox="0 0 57 56" fill="none" xmlns="http://www.w3.org/2000/svg">
<g id="Group 11">
<circle id="Ellipse 11" cx="28.5" cy="28" r="28" fill="#EFF6FF"/>
<g id="adaptive_audio_mic">
<mask id="mask0_261_142" style="mask-type:alpha" maskUnits="userSpaceOnUse" x="8" y="8" width="41" height="40">
<rect id="Bounding box" x="8.5" y="8" width="40" height="40" fill="#D9D9D9"/>
</mask>
<g mask="url(#mask0_261_142)">
<path id="adaptive_audio_mic_2" d="M46 30.5594H38.1721C38.0954 30.1894 37.9969 29.83 37.8767 29.4811C37.7567 29.1325 37.6161 28.794 37.455 28.4657H43.8908C43.8647 28.0382 43.7557 27.6679 43.5638 27.3548C43.3718 27.0421 43.0837 26.788 42.6996 26.5928C41.7965 26.1019 40.839 25.7419 39.8271 25.5128C38.8149 25.2833 37.7475 25.1629 36.625 25.1515C36.3436 25.1515 36.0711 25.1614 35.8075 25.1811C35.5442 25.2005 35.2718 25.2337 34.9904 25.2807C34.6163 24.9365 34.2214 24.6241 33.8058 24.3436C33.3903 24.063 32.9425 23.8196 32.4625 23.6132C33.1228 23.4379 33.8001 23.3015 34.4946 23.204C35.1893 23.1062 35.9006 23.0573 36.6283 23.0573C37.8989 23.0573 39.13 23.1996 40.3217 23.484C41.5131 23.7682 42.6526 24.1915 43.7404 24.754C44.4746 25.1393 45.0347 25.6537 45.4208 26.2973C45.8069 26.9409 46 27.6997 46 28.5736V30.5594ZM36.6258 21.2048C35.3753 21.2048 34.3119 20.7655 33.4358 19.8869C32.5597 19.008 32.1217 17.9409 32.1217 16.6857C32.1217 15.4304 32.5594 14.3634 33.435 13.4848C34.3103 12.6059 35.3733 12.1665 36.6242 12.1665C37.8747 12.1665 38.9381 12.6059 39.8142 13.4848C40.6903 14.3634 41.1283 15.4304 41.1283 16.6857C41.1283 17.9409 40.6906 19.008 39.815 19.8869C38.9394 20.7655 37.8764 21.2048 36.6258 21.2048ZM36.6254 19.1111C37.3082 19.1111 37.8804 18.879 38.3421 18.4148C38.8035 17.9509 39.0342 17.3761 39.0342 16.6903C39.0342 16.0041 38.8032 15.4276 38.3413 14.9607C37.8796 14.494 37.3074 14.2607 36.6246 14.2607C35.9418 14.2607 35.3696 14.4926 34.9079 14.9565C34.4465 15.4207 34.2158 15.9957 34.2158 16.6815C34.2158 17.3673 34.4468 17.9437 34.9088 18.4107C35.3704 18.8776 35.9426 19.1111 36.6254 19.1111ZM11 30.5594V28.5736C11 27.6997 11.1931 26.9409 11.5792 26.2973C11.9653 25.6537 12.529 25.1393 13.2704 24.754C14.351 24.1915 15.4869 23.7682 16.6783 23.484C17.87 23.1996 19.1011 23.0573 20.3717 23.0573C21.0994 23.0573 21.8107 23.1062 22.5054 23.204C23.1999 23.3015 23.8772 23.4379 24.5375 23.6132C24.0575 23.8196 23.6097 24.063 23.1942 24.3436C22.7786 24.6241 22.3838 24.9365 22.0096 25.2807C21.7282 25.2337 21.4558 25.2005 21.1925 25.1811C20.9289 25.1614 20.6564 25.1515 20.375 25.1515C19.2525 25.1629 18.1851 25.2833 17.1729 25.5128C16.161 25.7419 15.2035 26.1019 14.3004 26.5928C13.9163 26.788 13.6282 27.0421 13.4363 27.3548C13.2443 27.6679 13.1353 28.0382 13.1092 28.4657H19.545C19.3839 28.794 19.2433 29.1325 19.1233 29.4811C19.0031 29.83 18.9046 30.1894 18.8279 30.5594H11ZM20.3758 21.2048C19.1253 21.2048 18.0619 20.7655 17.1858 19.8869C16.3097 19.008 15.8717 17.9409 15.8717 16.6857C15.8717 15.4304 16.3094 14.3634 17.185 13.4848C18.0606 12.6059 19.1236 12.1665 20.3742 12.1665C21.6247 12.1665 22.6881 12.6059 23.5642 13.4848C24.4403 14.3634 24.8783 15.4304 24.8783 16.6857C24.8783 17.9409 24.4406 19.008 23.565 19.8869C22.6897 20.7655 21.6267 21.2048 20.3758 21.2048ZM20.3754 19.1111C21.0582 19.1111 21.6304 18.879 22.0921 18.4148C22.5535 17.9509 22.7842 17.3761 22.7842 16.6903C22.7842 16.0041 22.5532 15.4276 22.0913 14.9607C21.6296 14.494 21.0574 14.2607 20.3746 14.2607C19.6918 14.2607 19.1196 14.4926 18.6579 14.9565C18.1965 15.4207 17.9658 15.9957 17.9658 16.6815C17.9658 17.3673 18.1968 17.9437 18.6588 18.4107C19.1204 18.8776 19.6926 19.1111 20.3754 19.1111ZM28.4967 35.5819C27.7525 35.5819 27.1228 35.3208 26.6075 34.7986C26.0922 34.2764 25.8346 33.6436 25.8346 32.9003V27.9519C25.8346 27.2147 26.0933 26.5835 26.6108 26.0582C27.1283 25.5329 27.7592 25.2703 28.5033 25.2703C29.2475 25.2703 29.8772 25.5329 30.3925 26.0582C30.9078 26.5835 31.1654 27.2147 31.1654 27.9519V32.9003C31.1654 33.6436 30.9067 34.2764 30.3892 34.7986C29.8717 35.3208 29.2408 35.5819 28.4967 35.5819ZM27.7096 43.8332V40.4965C25.8057 40.2965 24.2053 39.4772 22.9083 38.0386C21.6111 36.6003 20.9625 34.8875 20.9625 32.9003H22.5279C22.5279 34.58 23.1051 36.0108 24.2596 37.1928C25.4138 38.3747 26.8269 38.9657 28.4992 38.9657C30.1714 38.9657 31.585 38.3736 32.74 37.1894C33.8947 36.0053 34.4721 34.5755 34.4721 32.9003H36.0533C36.0533 34.8875 35.4022 36.6003 34.1 38.0386C32.7975 39.4772 31.1943 40.2965 29.2904 40.4965V43.8332H27.7096Z" fill="#1D7EFF"/>
</g>
</g>
</g>
</svg>
