<svg width="57" height="56" viewBox="0 0 57 56" fill="none" xmlns="http://www.w3.org/2000/svg">
<g id="Group 11">
<circle id="Ellipse 11" cx="28.5" cy="28" r="28" fill="#EFF6FF"/>
<g id="monetization_on">
<mask id="mask0_261_118" style="mask-type:alpha" maskUnits="userSpaceOnUse" x="8" y="8" width="41" height="40">
<rect id="Bounding box" x="8.5" y="8" width="40" height="40" fill="#D9D9D9"/>
</mask>
<g mask="url(#mask0_261_118)">
<path id="monetization_on_2" d="M27.4617 39.4869H29.438V37.4228C30.8774 37.2847 32.108 36.813 33.1297 36.0078C34.1516 35.2028 34.6626 34.0441 34.6626 32.5319C34.6626 31.2414 34.2847 30.168 33.5288 29.3119C32.7733 28.4558 31.4161 27.6459 29.4572 26.8823C27.728 26.2312 26.5554 25.6604 25.9392 25.1698C25.3231 24.679 25.0151 23.9991 25.0151 23.1303C25.0151 22.2797 25.3376 21.588 25.9826 21.0553C26.6273 20.5225 27.4942 20.2561 28.5834 20.2561C29.4281 20.2561 30.1429 20.4504 30.7276 20.839C31.3123 21.2276 31.7949 21.7628 32.1755 22.4444L33.9059 21.6794C33.4751 20.7925 32.8763 20.0729 32.1097 19.5207C31.3427 18.9684 30.4799 18.6503 29.5213 18.5661V16.5298H27.5451V18.5661C26.1126 18.7869 25.0052 19.3209 24.223 20.1682C23.4405 21.0154 23.0492 22.0028 23.0492 23.1303C23.0492 24.4122 23.4445 25.4346 24.2351 26.1973C25.0256 26.9601 26.287 27.6757 28.0192 28.344C29.8434 29.0646 31.0826 29.7121 31.7367 30.2865C32.3909 30.8609 32.718 31.6094 32.718 32.5319C32.718 33.5653 32.322 34.345 31.5301 34.8711C30.7381 35.3972 29.8172 35.6603 28.7672 35.6603C27.7536 35.6603 26.8427 35.3696 26.0347 34.7882C25.2266 34.2071 24.624 33.3908 24.2267 32.3394L22.4167 33.0232C22.9423 34.2307 23.617 35.178 24.4409 35.8653C25.2645 36.5525 26.2715 37.0439 27.4617 37.3394V39.4869ZM28.5001 43.8332C26.3234 43.8332 24.2737 43.4171 22.3509 42.5848C20.4284 41.7526 18.7499 40.6191 17.3155 39.1844C15.8808 37.75 14.7473 36.0715 13.9151 34.149C13.0829 32.2262 12.6667 30.1765 12.6667 27.9998C12.6667 25.8118 13.0829 23.7547 13.9151 21.8286C14.7473 19.9022 15.8808 18.2264 17.3155 16.8011C18.7499 15.3758 20.4284 14.2471 22.3509 13.4148C24.2737 12.5826 26.3234 12.1665 28.5001 12.1665C30.6881 12.1665 32.7452 12.5826 34.6713 13.4148C36.5977 14.2471 38.2736 15.3758 39.6988 16.8011C41.1241 18.2264 42.2529 19.9022 43.0851 21.8286C43.9173 23.7547 44.3334 25.8118 44.3334 27.9998C44.3334 30.1765 43.9173 32.2262 43.0851 34.149C42.2529 36.0715 41.1241 37.75 39.6988 39.1844C38.2736 40.6191 36.5977 41.7526 34.6713 42.5848C32.7452 43.4171 30.6881 43.8332 28.5001 43.8332ZM28.5001 41.739C32.3276 41.739 35.5744 40.4032 38.2405 37.7315C40.9063 35.0598 42.2392 31.8159 42.2392 27.9998C42.2392 24.1723 40.9063 20.9255 38.2405 18.2594C35.5744 15.5936 32.3276 14.2607 28.5001 14.2607C24.684 14.2607 21.4401 15.5936 18.7684 18.2594C16.0967 20.9255 14.7609 24.1723 14.7609 27.9998C14.7609 31.8159 16.0967 35.0598 18.7684 37.7315C21.4401 40.4032 24.684 41.739 28.5001 41.739Z" fill="#1D7EFF"/>
</g>
</g>
</g>
</svg>
