<svg width="70" height="70" viewBox="0 0 70 70" fill="none" xmlns="http://www.w3.org/2000/svg">
<g id="ico">
<circle id="Ellipse 51" cx="35" cy="35" r="35" fill="#F2F6FF"/>
<g id="assignment">
<mask id="mask0_311_69138" style="mask-type:alpha" maskUnits="userSpaceOnUse" x="15" y="15" width="40" height="40">
<rect id="Bounding box" x="15" y="15" width="40" height="40" fill="#D9D9D9"/>
</mask>
<g mask="url(#mask0_311_69138)">
<path id="assignment_2" d="M23.4397 49.1667C22.7258 49.1667 22.1129 48.9107 21.6009 48.3988C21.089 47.8868 20.833 47.2739 20.833 46.56V23.44C20.833 22.7261 21.089 22.1132 21.6009 21.6012C22.1129 21.0893 22.7258 20.8333 23.4397 20.8333H31.6068C31.6059 19.9267 31.9334 19.1444 32.5893 18.4867C33.2454 17.8289 34.0488 17.5 34.9997 17.5C35.9613 17.5 36.7701 17.8289 37.4259 18.4867C38.082 19.1444 38.4043 19.9267 38.3926 20.8333H46.5597C47.2736 20.8333 47.8865 21.0893 48.3984 21.6012C48.9104 22.1132 49.1663 22.7261 49.1663 23.44V46.56C49.1663 47.2739 48.9104 47.8868 48.3984 48.3988C47.8865 48.9107 47.2736 49.1667 46.5597 49.1667H23.4397ZM23.4397 47.0725H46.5597C46.6877 47.0725 46.8052 47.0192 46.9122 46.9125C47.0188 46.8056 47.0722 46.6881 47.0722 46.56V23.44C47.0722 23.3119 47.0188 23.1944 46.9122 23.0875C46.8052 22.9808 46.6877 22.9275 46.5597 22.9275H23.4397C23.3116 22.9275 23.1941 22.9808 23.0872 23.0875C22.9805 23.1944 22.9272 23.3119 22.9272 23.44V46.56C22.9272 46.6881 22.9805 46.8056 23.0872 46.9125C23.1941 47.0192 23.3116 47.0725 23.4397 47.0725ZM27.083 42.7242H37.7751V40.6304H27.083V42.7242ZM27.083 36.0471H42.9163V33.9529H27.083V36.0471ZM27.083 29.3696H42.9163V27.2758H27.083V29.3696ZM34.9976 22.1025C35.3684 22.1025 35.6876 21.9713 35.9551 21.7088C36.2226 21.4463 36.3563 21.1271 36.3563 20.7513C36.3563 20.3751 36.2226 20.0558 35.9551 19.7933C35.6876 19.5308 35.3684 19.3996 34.9976 19.3996C34.6265 19.3996 34.3097 19.5308 34.0472 19.7933C33.7847 20.0558 33.6534 20.3751 33.6534 20.7513C33.6534 21.1271 33.7847 21.4463 34.0472 21.7088C34.3097 21.9713 34.6265 22.1025 34.9976 22.1025Z" fill="#394FE9"/>
</g>
</g>
</g>
</svg>
