<svg width="70" height="70" viewBox="0 0 70 70" fill="none" xmlns="http://www.w3.org/2000/svg">
<g id="ico">
<circle id="Ellipse 51" cx="35" cy="35" r="35" fill="#F2F6FF"/>
<g id="credit_score">
<mask id="mask0_311_69076" style="mask-type:alpha" maskUnits="userSpaceOnUse" x="15" y="15" width="40" height="40">
<rect id="Bounding box" x="15" y="15" width="40" height="40" fill="#D9D9D9"/>
</mask>
<g mask="url(#mask0_311_69076)">
<path id="credit_score_2" d="M21.667 29.0067H48.3337V25.5129C48.3337 25.3846 48.2802 25.2671 48.1732 25.1604C48.0666 25.0535 47.9491 25 47.8207 25H22.1799C22.0516 25 21.9341 25.0535 21.8274 25.1604C21.7205 25.2671 21.667 25.3846 21.667 25.5129V29.0067ZM19.167 25.5129C19.167 24.671 19.4587 23.9583 20.042 23.375C20.6253 22.7917 21.338 22.5 22.1799 22.5H47.8207C48.6627 22.5 49.3753 22.7917 49.9587 23.375C50.542 23.9583 50.8337 24.671 50.8337 25.5129V34.3267H21.667V44.4871C21.667 44.6154 21.7205 44.7329 21.8274 44.8396C21.9341 44.9465 22.0516 45 22.1799 45H29.4778V47.5H22.1799C21.338 47.5 20.6253 47.2083 20.042 46.625C19.4587 46.0417 19.167 45.329 19.167 44.4871V25.5129ZM39.6607 50.4488L33.1541 43.9421L34.9107 42.1858L39.6607 46.8846L49.1091 37.4358L50.8657 39.2433L39.6607 50.4488ZM21.667 25.5129V44.4871C21.667 44.6154 21.7205 44.7329 21.8274 44.8396C21.9341 44.9465 22.0516 45 22.1799 45H21.667V37.4521V42.1763V25H22.1799C22.0516 25 21.9341 25.0535 21.8274 25.1604C21.7205 25.2671 21.667 25.3846 21.667 25.5129Z" fill="#394FE9"/>
</g>
</g>
</g>
</svg>
