<svg width="70" height="70" viewBox="0 0 70 70" fill="none" xmlns="http://www.w3.org/2000/svg">
<g id="ico">
<circle id="Ellipse 51" cx="35" cy="35" r="35" fill="#F2F6FF"/>
<g id="person_celebrate">
<mask id="mask0_311_69105" style="mask-type:alpha" maskUnits="userSpaceOnUse" x="15" y="15" width="40" height="40">
<rect id="Bounding box" x="15" y="15" width="40" height="40" fill="#D9D9D9"/>
</mask>
<g mask="url(#mask0_311_69105)">
<path id="person_celebrate_2" d="M30.9376 49.1667V40.9276C29.2148 40.7912 27.5183 40.6072 25.848 40.3755C24.1775 40.1436 22.5058 39.8226 20.833 39.4126L21.3459 37.3184C23.5781 37.8626 25.8311 38.2501 28.1047 38.4809C30.3783 38.7117 32.6787 38.8272 35.0059 38.8272C37.3062 38.8272 39.5931 38.7117 41.8668 38.4809C44.1404 38.2501 46.4062 37.8626 48.6643 37.3184L49.1663 39.4126C47.4922 39.8217 45.8168 40.144 44.1401 40.3792C42.4631 40.6145 40.7704 40.7974 39.0618 40.928V49.1667H30.9376ZM35.0026 36.2242C34.1837 36.2242 33.4891 35.9402 32.9188 35.3722C32.3488 34.8038 32.0638 34.1065 32.0638 33.2801C32.0638 32.4781 32.3479 31.7897 32.9159 31.2147C33.4843 30.6399 34.1816 30.3526 35.008 30.3526C35.8102 30.3526 36.4987 30.6381 37.0734 31.2092C37.6481 31.7806 37.9355 32.4729 37.9355 33.2859C37.9355 34.1045 37.65 34.799 37.0788 35.3692C36.5077 35.9392 35.8156 36.2242 35.0026 36.2242ZM22.7105 31.4638C22.1825 31.4638 21.7376 31.2829 21.3759 30.9209C21.014 30.5592 20.833 30.1144 20.833 29.5863C20.833 29.0788 21.014 28.638 21.3759 28.2638C21.7376 27.8899 22.1825 27.703 22.7105 27.703C23.218 27.703 23.6588 27.8897 24.033 28.263C24.4069 28.6363 24.5938 29.0774 24.5938 29.5863C24.5938 30.1144 24.4072 30.5592 24.0338 30.9209C23.6605 31.2829 23.2194 31.4638 22.7105 31.4638ZM47.2834 31.4638C46.7551 31.4638 46.3101 31.2829 45.9484 30.9209C45.5865 30.5592 45.4055 30.1144 45.4055 29.5863C45.4055 29.0788 45.5865 28.638 45.9484 28.2638C46.3101 27.8899 46.755 27.703 47.283 27.703C47.7908 27.703 48.2316 27.8897 48.6055 28.263C48.9794 28.6363 49.1663 29.0774 49.1663 29.5863C49.1663 30.1144 48.9797 30.5592 48.6063 30.9209C48.233 31.2829 47.792 31.4638 47.2834 31.4638ZM27.2405 25.2938C26.7125 25.2938 26.2675 25.113 25.9055 24.7513C25.5438 24.3894 25.363 23.9444 25.363 23.4163C25.363 22.9088 25.5438 22.4681 25.9055 22.0942C26.2675 21.7204 26.7125 21.5334 27.2405 21.5334C27.748 21.5334 28.1887 21.7201 28.5626 22.0934C28.9365 22.4667 29.1234 22.9077 29.1234 23.4163C29.1234 23.9444 28.9368 24.3894 28.5634 24.7513C28.1901 25.113 27.7491 25.2938 27.2405 25.2938ZM42.7534 25.2938C42.2254 25.2938 41.7804 25.113 41.4184 24.7513C41.0568 24.3894 40.8759 23.9444 40.8759 23.4163C40.8759 22.9088 41.0568 22.4681 41.4184 22.0942C41.7804 21.7204 42.2252 21.5334 42.753 21.5334C43.2608 21.5334 43.7016 21.7201 44.0755 22.0934C44.4494 22.4667 44.6363 22.9077 44.6363 23.4163C44.6363 23.9444 44.4497 24.3894 44.0763 24.7513C43.703 25.113 43.262 25.2938 42.7534 25.2938ZM34.9968 22.9276C34.4687 22.9276 34.0238 22.7466 33.6622 22.3847C33.3002 22.023 33.1193 21.5781 33.1193 21.0501C33.1193 20.5423 33.3002 20.1015 33.6622 19.7276C34.0238 19.3537 34.4687 19.1667 34.9968 19.1667C35.5043 19.1667 35.9451 19.3534 36.3193 19.7267C36.6931 20.1001 36.8801 20.5411 36.8801 21.0497C36.8801 21.578 36.6934 22.023 36.3201 22.3847C35.9468 22.7466 35.5056 22.9276 34.9968 22.9276Z" fill="#394FE9"/>
</g>
</g>
</g>
</svg>
