<svg width="70" height="70" viewBox="0 0 70 70" fill="none" xmlns="http://www.w3.org/2000/svg">
<g id="ico">
<circle id="Ellipse 51" cx="35" cy="35" r="35" fill="#F2F6FF"/>
<g id="payments">
<mask id="mask0_311_69125" style="mask-type:alpha" maskUnits="userSpaceOnUse" x="15" y="15" width="40" height="40">
<rect id="Bounding box" x="15" y="15" width="40" height="40" fill="#D9D9D9"/>
</mask>
<g mask="url(#mask0_311_69125)">
<path id="payments_2" d="M37.5109 36.5916C36.3462 36.5916 35.3606 36.1884 34.5542 35.382C33.7476 34.5753 33.3442 33.5897 33.3442 32.4253C33.3442 31.2606 33.7476 30.275 34.5542 29.4686C35.3606 28.662 36.3462 28.2586 37.5109 28.2586C38.6753 28.2586 39.6609 28.662 40.4676 29.4686C41.274 30.275 41.6772 31.2606 41.6772 32.4253C41.6772 33.5897 41.274 34.5753 40.4676 35.382C39.6609 36.1884 38.6753 36.5916 37.5109 36.5916ZM25.7051 42.1578C24.9937 42.1578 24.3815 41.9013 23.8684 41.3882C23.3551 40.8749 23.0984 40.2625 23.0984 39.5511V25.299C23.0984 24.5877 23.3551 23.9753 23.8684 23.462C24.3815 22.9489 24.9937 22.6924 25.7051 22.6924H49.3163C50.0277 22.6924 50.6399 22.9489 51.153 23.462C51.6663 23.9753 51.923 24.5877 51.923 25.299V39.5511C51.923 40.2625 51.6663 40.8749 51.153 41.3882C50.6399 41.9013 50.0277 42.1578 49.3163 42.1578H25.7051ZM28.6113 40.0641H46.4105C46.4105 39.116 46.744 38.3092 47.4109 37.6436C48.0776 36.9781 48.8837 36.6453 49.8292 36.6453V28.2049C48.8812 28.2049 48.0744 27.8714 47.4088 27.2045C46.7433 26.5375 46.4105 25.7314 46.4105 24.7861H28.6113C28.6113 25.7342 28.2778 26.541 27.6109 27.2066C26.944 27.8721 26.1377 28.2049 25.1921 28.2049V36.6453C26.1402 36.6453 26.947 36.9788 27.6126 37.6457C28.2784 38.3127 28.6113 39.1188 28.6113 40.0641ZM46.9551 47.1795H20.6838C19.9724 47.1795 19.3602 46.9228 18.8471 46.4095C18.3338 45.8961 18.0771 45.2838 18.0771 44.5724V27.6603H20.1709V44.5724C20.1709 44.7007 20.2244 44.8182 20.3313 44.9249C20.4383 45.0318 20.5558 45.0853 20.6838 45.0853H46.9551V47.1795ZM25.7051 40.0641H25.1921V24.7861H25.7051C25.5662 24.7861 25.446 24.837 25.3446 24.9386C25.243 25.04 25.1921 25.1602 25.1921 25.299V39.5511C25.1921 39.69 25.243 39.8103 25.3446 39.912C25.446 40.0134 25.5662 40.0641 25.7051 40.0641Z" fill="#394FE9"/>
</g>
</g>
</g>
</svg>
