<svg width="50" height="50" viewBox="0 0 50 50" fill="none" xmlns="http://www.w3.org/2000/svg">
<g id="ico">
<circle id="Ellipse 51" cx="25" cy="25" r="25" fill="#F2F6FF"/>
<g id="spatial_tracking">
<mask id="mask0_311_70664" style="mask-type:alpha" maskUnits="userSpaceOnUse" x="11" y="12" width="29" height="30">
<rect id="Bounding box" x="11.4297" y="12.8569" width="28.5714" height="28.5714" fill="#D9D9D9"/>
</mask>
<g mask="url(#mask0_311_70664)">
<path id="spatial_tracking_2" d="M25.7148 27.7377C24.569 27.7377 23.5882 27.3296 22.7723 26.5136C21.9562 25.6977 21.5482 24.7168 21.5482 23.571C21.5482 22.4252 21.9562 21.4443 22.7723 20.6284C23.5882 19.8124 24.569 19.4043 25.7148 19.4043C26.8607 19.4043 27.8415 19.8124 28.6574 20.6284C29.4735 21.4443 29.8815 22.4252 29.8815 23.571C29.8815 24.7168 29.4735 25.6977 28.6574 26.5136C27.8415 27.3296 26.8607 27.7377 25.7148 27.7377ZM16.7863 36.8034V34.157C16.7863 33.5556 16.9396 33.0112 17.2464 32.5237C17.5531 32.036 17.9813 31.6586 18.5309 31.3915C19.5198 30.8985 20.6263 30.4868 21.8503 30.1564C23.0745 29.8261 24.3627 29.6609 25.7148 29.6609C27.067 29.6609 28.3552 29.8261 29.5794 30.1564C30.8034 30.4868 31.9099 30.8985 32.8988 31.3915C33.4484 31.6586 33.8766 32.036 34.1833 32.5237C34.49 33.0112 34.6434 33.5556 34.6434 34.157V36.8034H16.7863ZM12.5898 19.1868V17.4011C13.0644 17.4011 13.4999 17.3118 13.8961 17.1332C14.2921 16.9546 14.645 16.7105 14.9547 16.4008C15.2646 16.0908 15.5039 15.736 15.6726 15.3362C15.8412 14.9362 15.9256 14.5028 15.9256 14.0359H17.7181C17.7181 14.746 17.5846 15.4131 17.3175 16.0371C17.0505 16.6611 16.6834 17.2066 16.2163 17.6737C15.7493 18.1407 15.2049 18.5097 14.5833 18.7805C13.9617 19.0514 13.2972 19.1868 12.5898 19.1868ZM12.5898 23.5895V21.8037C13.6781 21.8037 14.6882 21.6 15.6199 21.1924C16.5516 20.7849 17.3655 20.2271 18.0616 19.5189C18.7574 18.8106 19.3091 17.9886 19.7166 17.0529C20.1242 16.1171 20.3279 15.1115 20.3279 14.0359H22.1434C22.1434 15.3454 21.8954 16.5805 21.3994 17.7412C20.9033 18.902 20.2188 19.9188 19.3458 20.7918C18.4728 21.6649 17.4609 22.3494 16.3101 22.8454C15.1593 23.3414 13.9192 23.5895 12.5898 23.5895ZM38.8101 23.5895C37.5021 23.5895 36.2685 23.3414 35.1092 22.8454C33.9499 22.3494 32.9342 21.6649 32.0622 20.7918C31.1901 19.9188 30.5064 18.902 30.011 17.7412C29.5155 16.5805 29.2678 15.3454 29.2678 14.0359H31.0535C31.0535 15.1119 31.2576 16.117 31.6657 17.0514C32.0739 17.9857 32.6324 18.8072 33.3413 19.5159C34.0501 20.2249 34.8716 20.7834 35.8059 21.1915C36.7402 21.5997 37.7416 21.8037 38.8101 21.8037V23.5895ZM38.8101 19.1868C38.1 19.1868 37.4329 19.0514 36.8089 18.7805C36.1849 18.5097 35.6393 18.1407 35.1723 17.6737C34.7052 17.2066 34.3382 16.6611 34.0711 16.0371C33.804 15.4131 33.6705 14.746 33.6705 14.0359H35.4562C35.4562 14.5028 35.5435 14.9362 35.7181 15.3362C35.8929 15.736 36.1353 16.0908 36.4452 16.4008C36.7549 16.7105 37.1098 16.9546 37.5098 17.1332C37.9096 17.3118 38.343 17.4011 38.8101 17.4011V19.1868Z" fill="#394FE9"/>
</g>
</g>
</g>
</svg>
