<svg width="50" height="50" viewBox="0 0 50 50" fill="none" xmlns="http://www.w3.org/2000/svg">
<g id="ico">
<circle id="Ellipse 51" cx="25" cy="25" r="25" fill="#F2F6FF"/>
<g id="view_in_ar">
<mask id="mask0_311_70686" style="mask-type:alpha" maskUnits="userSpaceOnUse" x="10" y="10" width="30" height="30">
<rect id="Bounding box" x="10.7148" y="10.7146" width="28.5714" height="28.5714" fill="#D9D9D9"/>
</mask>
<g mask="url(#mask0_311_70686)">
<path id="view_in_ar_2" d="M23.925 33.6933L18.0411 30.2936C17.7024 30.0982 17.4384 29.8341 17.2491 29.5013C17.0599 29.1686 16.9652 28.8129 16.9652 28.4344V21.635C16.9652 21.2566 17.0599 20.901 17.2491 20.5683C17.4384 20.2356 17.7024 19.9715 18.0411 19.776L23.925 16.3763C24.2637 16.1811 24.6224 16.0835 25.0009 16.0835C25.3795 16.0835 25.7381 16.1811 26.0768 16.3763L31.9608 19.776C32.2994 19.9715 32.5634 20.2356 32.7527 20.5683C32.942 20.901 33.0366 21.2566 33.0366 21.635V28.4344C33.0366 28.8129 32.942 29.1686 32.7527 29.5013C32.5634 29.8341 32.2994 30.0982 31.9608 30.2936L26.0768 33.6933C25.7381 33.8885 25.3795 33.9862 25.0009 33.9862C24.6224 33.9862 24.2637 33.8885 23.925 33.6933ZM13.6914 19.0481V15.843C13.6914 15.2494 13.9016 14.7422 14.3221 14.3216C14.7427 13.9011 15.2498 13.6909 15.8435 13.6909H19.0485V15.4766H15.8435C15.7365 15.4766 15.6487 15.511 15.5801 15.5796C15.5114 15.6483 15.4771 15.7361 15.4771 15.843V19.0481H13.6914ZM19.0485 36.31H15.8435C15.2498 36.31 14.7427 36.0997 14.3221 35.6793C13.9016 35.2587 13.6914 34.7515 13.6914 34.1579V30.9528H15.4771V34.1579C15.4771 34.2648 15.5114 34.3526 15.5801 34.4213C15.6487 34.4899 15.7365 34.5243 15.8435 34.5243H19.0485V36.31ZM30.9533 36.31V34.5243H34.1584C34.2653 34.5243 34.3531 34.4899 34.4218 34.4213C34.4904 34.3526 34.5247 34.2648 34.5247 34.1579V30.9528H36.3105V34.1579C36.3105 34.7515 36.1002 35.2587 35.6798 35.6793C35.2592 36.0997 34.752 36.31 34.1584 36.31H30.9533ZM34.5247 19.0481V15.843C34.5247 15.7361 34.4904 15.6483 34.4218 15.5796C34.3531 15.511 34.2653 15.4766 34.1584 15.4766H30.9533V13.6909H34.1584C34.752 13.6909 35.2592 13.9011 35.6798 14.3216C36.1002 14.7422 36.3105 15.2494 36.3105 15.843V19.0481H34.5247ZM19.6804 20.8978L18.7509 21.429V22.4591L24.1081 25.5362V31.7451L25.0009 32.2579L25.8938 31.7451V25.5362L31.2509 22.4591V21.429L30.3215 20.8978L25.0009 23.9978L19.6804 20.8978Z" fill="#394FE9"/>
</g>
</g>
</g>
</svg>
