<svg width="50" height="50" viewBox="0 0 50 50" fill="none" xmlns="http://www.w3.org/2000/svg">
<g id="ico">
<circle id="Ellipse 51" cx="25" cy="25" r="25" fill="#F2F6FF"/>
<g id="dvr">
<mask id="mask0_311_70649" style="mask-type:alpha" maskUnits="userSpaceOnUse" x="10" y="10" width="30" height="30">
<rect id="Bounding box" x="10.7148" y="10.7146" width="28.5714" height="28.5714" fill="#D9D9D9"/>
</mask>
<g mask="url(#mask0_311_70649)">
<path id="dvr_2" d="M19.0485 27.1522C19.321 27.1522 19.5493 27.0601 19.7337 26.8757C19.918 26.6914 20.0102 26.463 20.0102 26.1906C20.0102 25.9182 19.918 25.6898 19.7337 25.5055C19.5493 25.3212 19.321 25.229 19.0485 25.229C18.7761 25.229 18.5478 25.3212 18.3634 25.5055C18.1791 25.6898 18.0869 25.9182 18.0869 26.1906C18.0869 26.463 18.1791 26.6914 18.3634 26.8757C18.5478 27.0601 18.7761 27.1522 19.0485 27.1522ZM19.0485 22.3903C19.321 22.3903 19.5493 22.2982 19.7337 22.1138C19.918 21.9295 20.0102 21.7011 20.0102 21.4287C20.0102 21.1563 19.918 20.9279 19.7337 20.7436C19.5493 20.5593 19.321 20.4671 19.0485 20.4671C18.7761 20.4671 18.5478 20.5593 18.3634 20.7436C18.1791 20.9279 18.0869 21.1563 18.0869 21.4287C18.0869 21.7011 18.1791 21.9295 18.3634 22.1138C18.5478 22.2982 18.7761 22.3903 19.0485 22.3903ZM21.4983 27.0835H31.8462V25.2978H21.4983V27.0835ZM21.4983 22.3216H31.8462V20.5359H21.4983V22.3216ZM20.8343 35.1192V32.7382H15.8435C15.2421 32.7382 14.7331 32.5299 14.3164 32.1132C13.8997 31.6966 13.6914 31.1876 13.6914 30.5862V17.0332C13.6914 16.4318 13.8997 15.9228 14.3164 15.5061C14.7331 15.0894 15.2421 14.8811 15.8435 14.8811H34.1584C34.7598 14.8811 35.2688 15.0894 35.6855 15.5061C36.1021 15.9228 36.3105 16.4318 36.3105 17.0332V30.5862C36.3105 31.1876 36.1021 31.6966 35.6855 32.1132C35.2688 32.5299 34.7598 32.7382 34.1584 32.7382H29.1676V35.1192H20.8343Z" fill="#394FE9"/>
</g>
</g>
</g>
</svg>
