<svg width="50" height="50" viewBox="0 0 50 50" fill="none" xmlns="http://www.w3.org/2000/svg">
<g id="ico">
<circle id="Ellipse 51" cx="25" cy="25" r="25" fill="#F2F6FF"/>
<g id="description">
<mask id="mask0_311_70637" style="mask-type:alpha" maskUnits="userSpaceOnUse" x="10" y="10" width="30" height="30">
<rect id="Bounding box" x="10.7148" y="10.7145" width="28.5714" height="28.5714" fill="#D9D9D9"/>
</mask>
<g mask="url(#mask0_311_70637)">
<path id="description_2" d="M20.5346 31.8459H29.4632V30.0602H20.5346V31.8459ZM20.5346 27.084H29.4632V25.2983H20.5346V27.084ZM18.2224 36.3102C17.621 36.3102 17.112 36.1019 16.6953 35.6852C16.2786 35.2685 16.0703 34.7595 16.0703 34.1581V15.8432C16.0703 15.2419 16.2786 14.7328 16.6953 14.3162C17.112 13.8995 17.621 13.6912 18.2224 13.6912H27.6775L33.9275 19.9412V34.1581C33.9275 34.7595 33.7191 35.2685 33.3025 35.6852C32.8858 36.1019 32.3768 36.3102 31.7754 36.3102H18.2224ZM26.7846 20.834H32.1417L26.7846 15.4769V20.834Z" fill="#394FE9"/>
</g>
</g>
</g>
</svg>
