<svg width="50" height="50" viewBox="0 0 50 50" fill="none" xmlns="http://www.w3.org/2000/svg">
<g id="ico">
<circle id="Ellipse 51" cx="25" cy="25" r="25" fill="#F2F6FF"/>
<g id="communication">
<mask id="mask0_311_70672" style="mask-type:alpha" maskUnits="userSpaceOnUse" x="10" y="10" width="30" height="30">
<rect id="Bounding box" x="10.7148" y="10.7146" width="28.5714" height="28.5714" fill="#D9D9D9"/>
</mask>
<g mask="url(#mask0_311_70672)">
<path id="communication_2" d="M22.9496 26.2801L21.9513 25.2819C22.0948 25.0637 22.1944 24.8309 22.2501 24.5837C22.3059 24.3365 22.3338 24.0823 22.3338 23.8212C22.3338 23.5603 22.304 23.3062 22.2445 23.059C22.185 22.8118 22.0834 22.589 21.9397 22.3906L22.9379 21.3739C23.2096 21.7128 23.4133 22.097 23.5493 22.5266C23.6852 22.9563 23.7531 23.3879 23.7531 23.8212C23.7531 24.2547 23.6871 24.6852 23.5549 25.1126C23.423 25.54 23.2212 25.9291 22.9496 26.2801ZM25.3763 28.7138L24.3597 27.6974C24.8404 27.1341 25.1972 26.519 25.4299 25.8522C25.6626 25.1851 25.779 24.5043 25.779 23.8099C25.779 23.1155 25.6626 22.4378 25.4299 21.7769C25.1972 21.116 24.8404 20.5077 24.3597 19.9522L25.3763 18.9358C25.9898 19.6318 26.4469 20.3984 26.7475 21.2355C27.0483 22.0726 27.1987 22.9307 27.1987 23.8099C27.1987 24.6891 27.0483 25.5503 26.7475 26.3935C26.4469 27.2368 25.9898 28.0102 25.3763 28.7138ZM16.6674 24.7028C16.089 24.7028 15.5972 24.5002 15.1918 24.095C14.7867 23.6897 14.5841 23.1978 14.5841 22.6194C14.5841 22.041 14.7867 21.5492 15.1918 21.1438C15.5972 20.7387 16.089 20.5361 16.6674 20.5361C17.2458 20.5361 17.7376 20.7387 18.143 21.1438C18.5482 21.5492 18.7507 22.041 18.7507 22.6194C18.7507 23.1978 18.5482 23.6897 18.143 24.095C17.7376 24.5002 17.2458 24.7028 16.6674 24.7028ZM12.2031 29.4647V29.0206C12.2031 28.6131 12.3168 28.2433 12.5442 27.9114C12.7716 27.5794 13.083 27.3257 13.4784 27.1501C13.9713 26.9318 14.4829 26.767 15.0132 26.6557C15.5436 26.5442 16.095 26.4885 16.6674 26.4885C17.2398 26.4885 17.7912 26.5442 18.3216 26.6557C18.8519 26.767 19.3635 26.9318 19.8564 27.1501C20.2518 27.3257 20.5632 27.5794 20.7906 27.9114C21.018 28.2433 21.1317 28.6131 21.1317 29.0206V29.4647H12.2031ZM33.3341 24.7028C32.7557 24.7028 32.2638 24.5002 31.8585 24.095C31.4533 23.6897 31.2507 23.1978 31.2507 22.6194C31.2507 22.041 31.4533 21.5492 31.8585 21.1438C32.2638 20.7387 32.7557 20.5361 33.3341 20.5361C33.9125 20.5361 34.4043 20.7387 34.8097 21.1438C35.2148 21.5492 35.4174 22.041 35.4174 22.6194C35.4174 23.1978 35.2148 23.6897 34.8097 24.095C34.4043 24.5002 33.9125 24.7028 33.3341 24.7028ZM28.8698 29.4647V29.0206C28.8698 28.6131 28.9835 28.2433 29.2109 27.9114C29.4382 27.5794 29.7497 27.3257 30.1451 27.1501C30.6379 26.9318 31.1496 26.767 31.6799 26.6557C32.2103 26.5442 32.7617 26.4885 33.3341 26.4885C33.9065 26.4885 34.4579 26.5442 34.9882 26.6557C35.5186 26.767 36.0302 26.9318 36.5231 27.1501C36.9185 27.3257 37.2299 27.5794 37.4573 27.9114C37.6847 28.2433 37.7984 28.6131 37.7984 29.0206V29.4647H28.8698Z" fill="#394FE9"/>
</g>
</g>
</g>
</svg>
