<svg width="70" height="70" viewBox="0 0 70 70" fill="none" xmlns="http://www.w3.org/2000/svg">
<g id="ico">
<circle id="Ellipse 51" cx="35" cy="35" r="35" fill="#F2F6FF"/>
<g id="savings">
<mask id="mask0_311_69832" style="mask-type:alpha" maskUnits="userSpaceOnUse" x="15" y="15" width="40" height="40">
<rect id="Bounding box" x="15" y="15" width="40" height="40" fill="#D9D9D9"/>
</mask>
<g mask="url(#mask0_311_69832)">
<path id="currency_exchange" d="M34.9999 52C31.7499 52 28.733 51.094 25.9491 49.2821C23.1652 47.4701 21.0201 45.2126 19.5137 42.5096V48.0896H17.4199V38.9229H26.5866V41.0171H21.0853C22.3317 43.5157 24.2406 45.6218 26.812 47.3354C29.3831 49.049 32.1124 49.9058 34.9999 49.9058C37.0819 49.9058 39.0428 49.5185 40.8828 48.7437C42.7231 47.9688 44.3348 46.9083 45.7178 45.5625C47.1012 44.2167 48.2096 42.629 49.0433 40.7996C49.8769 38.9701 50.3258 37.0092 50.3899 34.9167H52.4837C52.4303 37.2842 51.9352 39.5043 50.9983 41.5771C50.0613 43.6496 48.8049 45.4604 47.2291 47.0096C45.6533 48.5588 43.8156 49.7778 41.7162 50.6667C39.6167 51.5556 37.378 52 34.9999 52ZM33.9616 45.9871V43.8396C32.7713 43.544 31.7644 43.0526 30.9408 42.3654C30.1169 41.6782 29.4421 40.7308 28.9166 39.5233L30.7266 38.8396C31.1238 39.891 31.7264 40.7072 32.5345 41.2883C33.3426 41.8697 34.2534 42.1604 35.267 42.1604C36.317 42.1604 37.238 41.8974 38.0299 41.3713C38.8219 40.8451 39.2178 40.0654 39.2178 39.0321C39.2178 38.1096 38.8908 37.3611 38.2366 36.7867C37.5824 36.2122 36.3433 35.5647 34.5191 34.8442C32.7869 34.1758 31.5255 33.4603 30.7349 32.6975C29.9444 31.9347 29.5491 30.9124 29.5491 29.6304C29.5491 28.5143 29.9455 27.5275 30.7383 26.67C31.531 25.8125 32.6333 25.2779 34.0449 25.0663V23.03H36.0212V25.0663C36.9798 25.1504 37.8426 25.4686 38.6095 26.0208C39.3762 26.5731 39.9749 27.2926 40.4058 28.1796L38.6753 28.9446C38.2948 28.2629 37.8121 27.7278 37.2274 27.3392C36.6427 26.9506 35.928 26.7563 35.0833 26.7563C33.9941 26.7563 33.1271 27.0226 32.4824 27.5554C31.8374 28.0882 31.5149 28.7799 31.5149 29.6304C31.5149 30.4993 31.823 31.1792 32.4391 31.67C33.0552 32.1606 34.2278 32.7314 35.957 33.3825C37.9159 34.1461 39.2731 34.956 40.0287 35.8121C40.7845 36.6682 41.1624 37.7415 41.1624 39.0321C41.1624 39.7813 41.0212 40.4468 40.7387 41.0288C40.4562 41.6107 40.0795 42.1035 39.6087 42.5071C39.1381 42.9104 38.5867 43.2307 37.9545 43.4679C37.3223 43.7051 36.6501 43.8568 35.9378 43.9229V45.9871H33.9616ZM17.5162 34.0833C17.5909 31.6625 18.102 29.4131 19.0495 27.335C19.9973 25.2569 21.2644 23.4487 22.8508 21.9104C24.4374 20.3718 26.2724 19.1687 28.3558 18.3012C30.4391 17.4337 32.6538 17 34.9999 17C38.218 17 41.2349 17.9087 44.0508 19.7262C46.8666 21.5435 49.0117 23.8196 50.4862 26.5546V20.9104H52.5799V30.0771H43.4133V27.9829H48.9145C47.7001 25.5343 45.8092 23.4407 43.242 21.7021C40.6748 19.9635 37.9274 19.0942 34.9999 19.0942C32.9608 19.0942 31.022 19.4763 29.1837 20.2404C27.3453 21.0046 25.731 22.0543 24.3408 23.3896C22.9505 24.7246 21.8305 26.3068 20.9808 28.1363C20.131 29.9657 19.6741 31.9481 19.6099 34.0833H17.5162Z" fill="#394FE9"/>
</g>
</g>
</g>
</svg>
