<svg width="70" height="70" viewBox="0 0 70 70" fill="none" xmlns="http://www.w3.org/2000/svg">
<g id="ico">
<circle id="Ellipse 51" cx="35" cy="35" r="35" fill="#F2F6FF"/>
<g id="payments">
<mask id="mask0_311_69825" style="mask-type:alpha" maskUnits="userSpaceOnUse" x="15" y="15" width="40" height="40">
<rect id="Bounding box" x="15" y="15" width="40" height="40" fill="#D9D9D9"/>
</mask>
<g mask="url(#mask0_311_69825)">
<path id="payments_2" d="M20.6828 47.1795C19.9714 47.1795 19.3592 46.9228 18.8462 46.4095C18.3328 45.8961 18.0762 45.2838 18.0762 44.5724V27.6603H20.1699V44.5724C20.1699 44.7007 20.2234 44.8182 20.3303 44.9249C20.4373 45.0318 20.5548 45.0853 20.6828 45.0853H46.9541V47.1795H20.6828ZM25.7041 42.1578C24.9927 42.1578 24.3805 41.9013 23.8674 41.3882C23.3541 40.8749 23.0974 40.2625 23.0974 39.5511V25.299C23.0974 24.5877 23.3541 23.9753 23.8674 23.462C24.3805 22.9489 24.9927 22.6924 25.7041 22.6924H49.3153C50.0267 22.6924 50.639 22.9489 51.152 23.462C51.6653 23.9753 51.922 24.5877 51.922 25.299V39.5511C51.922 40.2625 51.6653 40.8749 51.152 41.3882C50.639 41.9013 50.0267 42.1578 49.3153 42.1578H25.7041ZM28.6103 40.0641C28.6103 39.116 28.2769 38.3092 27.6099 37.6436C26.943 36.9781 26.1367 36.6453 25.1912 36.6453V39.5511C25.1912 39.69 25.242 39.8103 25.3437 39.912C25.4451 40.0134 25.5652 40.0641 25.7041 40.0641H28.6103ZM46.4095 40.0641H49.3153C49.4542 40.0641 49.5744 40.0134 49.6758 39.912C49.7774 39.8103 49.8283 39.69 49.8283 39.5511V36.6453C48.8802 36.6453 48.0734 36.9788 47.4078 37.6457C46.7423 38.3127 46.4095 39.1188 46.4095 40.0641ZM37.5099 36.5916C38.6744 36.5916 39.6599 36.1884 40.4666 35.382C41.273 34.5753 41.6762 33.5897 41.6762 32.4253C41.6762 31.2606 41.273 30.275 40.4666 29.4686C39.6599 28.662 38.6744 28.2586 37.5099 28.2586C36.3452 28.2586 35.3596 28.662 34.5533 29.4686C33.7466 30.275 33.3433 31.2606 33.3433 32.4253C33.3433 33.5897 33.7466 34.5753 34.5533 35.382C35.3596 36.1884 36.3452 36.5916 37.5099 36.5916ZM25.1912 28.2049C26.1392 28.2049 26.946 27.8714 27.6116 27.2045C28.2774 26.5375 28.6103 25.7314 28.6103 24.7861H25.7041C25.5652 24.7861 25.4451 24.837 25.3437 24.9386C25.242 25.04 25.1912 25.1602 25.1912 25.299V28.2049ZM49.8283 28.2049V25.299C49.8283 25.1602 49.7774 25.04 49.6758 24.9386C49.5744 24.837 49.4542 24.7861 49.3153 24.7861H46.4095C46.4095 25.7342 46.743 26.541 47.4099 27.2066C48.0766 27.8721 48.8827 28.2049 49.8283 28.2049Z" fill="#394FE9"/>
</g>
</g>
</g>
</svg>
